<svg width="57" height="57" viewBox="0 0 57 57" fill="none" xmlns="http://www.w3.org/2000/svg">
<path d="M40.3308 10.5117C40.3308 10.5117 41.9741 10.6625 42.7674 10.5117C42.7674 10.5117 44.5787 10.3066 45.6759 10.5784L49.6025 10.9466H50.0176C50.0176 10.9466 51.2458 10.1905 52.0563 10.23H53.4154L55.0958 10.3808L55.3232 10.4574C55.3232 10.4574 55.852 10.702 55.3232 10.7984L53.4723 10.8552L53.3586 10.9491L53.4896 11.043L55.5554 11.1938C55.5554 11.1938 56.1683 11.4013 55.5554 11.5348L53.3191 11.6484L53.282 11.7621L55.0192 11.9499C55.0192 11.9499 55.7556 12.2341 55.039 12.2909H53.151V12.3848L54.2828 12.5356C54.2828 12.5356 54.7548 12.6863 54.3026 12.7802L52.81 12.8741C52.81 12.8741 51.829 13.0051 50.4872 12.6097L49.1478 12.6468C49.1478 12.6468 45.6932 13.1954 43.9189 13.2497H40.6719L39.4437 13.3436C39.4437 13.3436 35.4635 13.6047 34.5566 13.2266" stroke="#FFFFFF" stroke-miterlimit="10"/>
<path d="M16.8856 10.4601L15.5209 10.623L14.6906 10.5464C14.6906 10.5464 13.3512 10.3018 10.9715 10.5464C10.9715 10.5464 8.49795 10.8677 7.68742 10.9245C7.68742 10.9245 6.98809 11.0555 6.40243 10.6799C6.40243 10.6799 5.87361 10.1931 4.66523 10.2573L1.68258 10.4352C1.68258 10.4352 1.07963 10.6057 1.68258 10.8133L3.49392 10.8701L3.53098 11.058L1.30203 11.1889C1.30203 11.1889 0.622467 11.3767 1.30203 11.5843H3.54828L3.62489 11.735L1.83085 11.9624C1.83085 11.9624 1.37863 12.1897 1.88768 12.2639H3.77562L3.81269 12.3948L2.66115 12.5456C2.66115 12.5456 2.05819 12.6592 2.64138 12.8298H3.49144C3.49144 12.8298 5.87114 12.7729 6.11578 12.6592C6.11578 12.6592 6.36042 12.4887 7.5688 12.6395L9.24917 12.9237C9.24917 12.9237 13.5168 13.3759 16.0645 13.2251L17.0283 13.2548C17.0283 13.2548 20.8211 13.4327 21.9726 12.9237" stroke="#FFFFFF" stroke-miterlimit="10"/>
<path d="M23.5668 35.3595L23.9573 39.9825C23.9573 39.9825 23.8732 40.961 23.5668 42.1051C23.5668 42.1051 22.786 43.5582 23.3988 46.8547L24.1797 50.8208L24.3205 51.9946V52.7755L24.1525 53.1659C24.1525 53.1659 23.9004 53.418 24.2093 53.9764L24.0141 55.2342L24.0981 55.8767H26.8065C26.8065 55.8767 27.2809 55.8767 27.0289 55.2342C27.0289 55.2342 26.7496 54.955 26.3592 54.0605L26.164 51.2681L26.7225 45.5425L26.7496 43.0714C26.7496 43.0714 26.6088 42.4709 27.2513 40.9067C27.2513 40.9067 27.6145 40.4866 27.5577 37.2766L27.9209 34.3162C27.9209 34.3162 28.5906 32.5565 27.9209 28.9338H28.729C28.729 28.9338 28.1705 30.3228 28.729 33.9801L28.9514 37.667C28.9514 37.667 29.3418 40.7386 28.9514 42.3869C28.9514 42.3869 28.3089 45.068 28.8946 47.0523C28.8946 47.0523 29.8731 52.1083 29.453 53.3364C29.453 53.3364 28.7265 54.4534 29.033 55.1527C29.033 55.1527 29.285 55.9336 30.1227 55.8792C30.1227 55.8792 31.4645 55.2713 32.8311 55.8817C32.8311 55.8817 34.8154 56.2425 35.401 55.6271C35.401 55.6271 35.7643 55.2367 34.9266 55.1255C34.9266 55.1255 33.2783 54.6511 31.939 53.3092C31.939 53.3092 31.5757 53.2821 31.7166 52.2071L32.023 46.8571L32.4135 40.3778C32.4135 40.3778 33.0457 36.8578 33.5745 35.6272" stroke="#FFFFFF" stroke-miterlimit="10"/>
<path d="M16.7415 10.3955C16.7415 10.3955 14.6904 9.26619 14.1542 9.17722C14.1542 9.17722 11.8363 8.22584 10.3783 7.15584C10.3783 7.15584 8.09005 5.54961 7.34624 5.60892C7.34624 5.60892 6.88661 5.56444 6.13292 5.29014C6.13292 5.29014 4.53904 4.74402 3.8496 4.27451C3.8496 4.27451 3.70875 4.01257 3.91632 4.06694L5.16177 4.32887C5.16177 4.32887 4.51681 3.92361 3.36032 3.55294C3.36032 3.55294 3.0539 3.24652 3.43692 3.28112C3.43692 3.28112 5.30509 3.72839 5.33722 3.69627C5.36934 3.66414 3.12062 2.64851 3.12062 2.64851C3.12062 2.64851 2.77219 2.34209 3.20711 2.34209L5.13953 2.93269L5.47807 2.96481L5.3471 2.78936L3.68651 1.97142C3.68651 1.97142 3.39244 1.665 3.80759 1.77373C3.80759 1.77373 5.81662 2.25313 6.30837 2.48294C6.30837 2.48294 7.35613 2.6238 8.42613 3.96809C8.42613 3.96809 8.52497 4.44749 11.5496 5.00596C11.5496 5.00596 14.4433 5.46559 15.4911 6.51335C15.4911 6.51335 16.4301 7.31152 17.4136 7.36589C17.4136 7.36589 18.9086 7.52898 19.2818 7.81316C19.2818 7.81316 20.1664 8.05286 20.9745 7.96637C20.9745 7.96637 23.2455 7.81316 24.1845 8.5891C24.1845 8.5891 26.0848 8.02074 26.28 8.19619C26.28 8.19619 26.9793 7.62783 26.4876 6.58995L26.3245 5.91287C26.3245 5.91287 26.1268 6.0216 25.8995 5.57432L25.6696 5.0282L25.6029 4.7885L25.6252 4.34123L25.6573 4.1559C25.6573 4.1559 25.8105 3.82724 26.0403 4.28687L26.0502 2.91045C26.0502 2.91045 26.0403 1.36105 27.7874 1.08676C27.7874 1.08676 29.5024 0.617244 30.3104 1.86269C30.3104 1.86269 30.943 2.5299 30.8022 4.28687C30.8022 4.28687 31.163 3.78523 31.2939 4.28687C31.2939 4.28687 31.4793 5.55455 30.5625 5.92522C30.5625 5.92522 30.5526 6.52571 30.2338 6.83213C30.2338 6.83213 30.0707 7.79339 30.6712 8.21843C30.6712 8.21843 32.0575 8.27279 32.4726 8.61134C32.4726 8.61134 34.0344 7.62783 36.6661 8.05533C36.6661 8.05533 39.7575 7.20279 40.0738 7.29175L40.358 7.22503L40.6422 7.07182C40.6422 7.07182 42.0606 5.5422 46.353 4.83298C46.353 4.83298 48.2409 4.48456 48.493 3.92608C48.493 3.92608 49.2466 2.80172 50.6651 2.43105C50.6651 2.43105 52.3034 1.92941 52.4443 1.86269L52.8594 1.80833C52.8594 1.80833 53.3734 1.73172 53.0571 2.08015L51.4311 2.88821L51.5942 2.92033C51.5942 2.92033 53.1238 2.58179 53.2968 2.3841C53.2968 2.3841 54.1592 2.15428 53.6453 2.7004L51.6239 3.59495C51.6239 3.59495 51.8314 3.71604 53.0547 3.30089L53.1856 3.23417H53.2944C53.2944 3.23417 53.7095 3.20204 53.5019 3.54058L51.7326 4.28192L51.787 4.33629L52.8026 4.06446C52.8026 4.06446 53.3388 3.98786 52.9879 4.30416L52.1898 4.67483L51.3916 5.0455L50.9764 5.22095L50.2771 5.42853L49.8076 5.53725L49.4468 5.56938L49.1948 5.61386L48.6165 5.86591L47.8406 6.34531L46.7928 6.93591C46.7928 6.93591 44.1833 8.65088 43.1553 8.9227L40.0219 10.3905L35.3268 11.5322L35.1736 11.7719C35.1736 11.7719 33.6341 15.4514 33.7107 15.5824C33.7107 15.5824 32.826 18.1153 32.7939 18.6169C32.7939 18.6169 32.6184 19.0222 32.7074 20.495C32.7074 20.495 33.1992 22.6127 32.9051 23.6728C32.9051 23.6728 32.9718 26.6431 35.1118 28.9265C35.1118 28.9265 36.9676 30.9676 37.3284 33.0434L37.667 34.4964L37.8646 35.6529C37.8646 35.6529 38.2131 37.9238 38.8803 38.7319L40.8671 42.488C40.8671 42.488 43.2146 47.1609 43.5977 48.1666L43.6965 48.3965C43.6965 48.3965 43.7286 48.7573 44.4601 48.8437L45.3225 48.9525C45.3225 48.9525 46.7978 49.1378 47.4946 48.9525L47.843 48.8536L48.0185 48.8314C48.0185 48.8314 48.5325 48.7548 48.3472 48.9624C48.3472 48.9624 46.5136 50.4697 46.1404 50.5562C46.1404 50.5562 44.8728 50.9491 44.3934 51.5397C44.3934 51.5397 43.956 52.1723 43.2789 52.1946C43.2789 52.1946 42.5375 52.0735 42.3843 51.2556C42.3843 51.2556 42.3942 49.8149 41.643 48.8857C41.643 48.8857 40.1356 46.0687 38.6505 45.0086C38.6505 45.0086 37.4371 44.1684 36.8935 42.4213C36.8935 42.4213 35.7024 38.7097 35.1563 38.2599L33.6267 35.6059C33.6267 35.6059 31.5311 32.6678 30.1869 31.5211C30.1869 31.5211 28.8104 29.9149 28.7239 28.9981L27.9604 28.9759C27.9604 28.9759 27.3154 30.4388 25.808 32.1982L24.6837 33.7377C24.6837 33.7377 22.9909 35.6059 22.4769 37.1776C22.4769 37.1776 21.9407 38.4008 20.6755 39.4609C20.6755 39.4609 20.0429 39.9749 19.8353 40.563C19.8353 40.563 19.3757 43.128 17.7398 44.9418C17.7398 44.9418 15.5133 47.8355 15.1945 48.992C15.1945 48.992 15.0314 49.679 14.6039 49.9632C14.6039 49.9632 14.2876 50.6081 14.3099 50.8701C14.3099 50.8701 14.0381 51.646 12.8247 51.7646C12.8247 51.7646 11.4483 51.2951 10.7712 50.618L10.9244 50.4426L11.2531 50.3116C11.2531 50.3116 11.9623 50.2127 12.4985 49.5134C12.4985 49.5134 14.0603 47.5365 14.4754 45.6585C14.4754 45.6585 15.3823 41.7813 16.1682 40.647C16.1682 40.647 18.8147 36.844 18.9358 36.1594C18.9358 36.1594 20.3221 30.634 21.5478 29.4479C21.5478 29.4479 23.799 26.6555 23.8781 24.2832C23.8781 24.2832 23.9596 24.0831 23.8583 23.3392C23.8583 23.3392 23.9398 21.2487 24.2191 19.9637C24.2191 19.9637 24.3599 19.4003 24.1178 18.7182C24.1178 18.7182 22.5511 13.3114 22.1087 13.0915L21.6071 11.6854C21.6071 11.6854 18.4441 10.5932 16.739 10.3856L16.7415 10.3955Z" stroke="#FFFFFF" stroke-miterlimit="10"/>
</svg>
