<svg width="38" height="56" viewBox="0 0 38 56" fill="none" xmlns="http://www.w3.org/2000/svg">
<path fill-rule="evenodd" clip-rule="evenodd" d="M13.6092 37.186C13.7071 38.4127 13.6259 39.6388 13.3426 40.8461C12.7477 43.2586 12.9657 48.6855 13.0802 50.9418C13.1121 51.6242 12.9657 52.29 12.6671 52.885L12.2728 53.6549C11.5265 54.8816 12.4047 54.8816 12.4047 54.8816H14.3548C14.7492 54.8816 15.0817 54.5123 15.0651 54.0777C14.9498 50.8203 15.3122 48.4251 15.4955 47.4948C15.5441 47.2178 15.6427 46.9915 15.7426 46.7249C16.3543 45.1504 16.4522 42.0152 16.4695 40.8294C16.4695 40.5649 16.5181 40.3025 16.6014 40.0421C17.0277 38.7474 17.3776 37.5588 17.665 36.4841H13.5537C13.5752 36.7271 13.5939 36.9618 13.6155 37.1839L13.6092 37.186Z" stroke="white" stroke-width="0.5" stroke-miterlimit="8"/>
<path fill-rule="evenodd" clip-rule="evenodd" d="M25.5028 52.8904C25.2022 52.2975 25.0551 51.6345 25.0898 50.9549C25.2043 48.7062 25.4216 43.3001 24.8273 40.8967C24.5441 39.6921 24.4629 38.4703 24.5608 37.2505C24.5823 37.0297 24.601 36.7958 24.6225 36.5535H20.5112C20.7986 37.6247 21.1465 38.8063 21.5748 40.0983C21.6581 40.3572 21.7067 40.6183 21.7067 40.8821C21.7241 42.0658 21.822 45.1871 22.4336 46.7554C22.5315 47.0192 22.6301 47.2441 22.6807 47.5225C22.8661 48.4493 23.2264 50.8355 23.1112 54.0804C23.0945 54.5136 23.4271 54.8815 23.8214 54.8815H25.7715C25.7715 54.8815 26.6497 54.8815 25.9034 53.6596L25.5091 52.8925L25.5028 52.8904Z" stroke="white" stroke-width="0.5" stroke-miterlimit="8"/>
<path fill-rule="evenodd" clip-rule="evenodd" d="M13.3854 33.9154H18.293C18.4325 33.2489 18.5484 32.6477 18.6366 32.1104H13.3638C13.3548 32.7303 13.3638 33.3315 13.3854 33.9154Z" stroke="white" stroke-width="0.5" stroke-miterlimit="8"/>
<path fill-rule="evenodd" clip-rule="evenodd" d="M19.8778 33.9154H24.7223C24.7438 33.3315 24.7501 32.7282 24.7438 32.1104H19.5391C19.6238 32.6477 19.7383 33.2489 19.8778 33.9154Z" stroke="white" stroke-width="0.5" stroke-miterlimit="8"/>
<path fill-rule="evenodd" clip-rule="evenodd" d="M36.7295 34.5055H1.37511C1.03424 34.5055 0.76001 34.8005 0.76001 35.165C0.76001 35.5295 1.03424 35.8246 1.37511 35.8246H36.7316C37.0704 35.8246 37.3467 35.5295 37.3467 35.165C37.3467 34.8005 37.0724 34.5055 36.7316 34.5055H36.7295Z" stroke="white" stroke-width="0.5" stroke-miterlimit="8"/>
<path fill-rule="evenodd" clip-rule="evenodd" d="M1.37856 31.6591H36.7281C36.953 31.6591 37.1384 31.4578 37.1384 31.2079C37.1384 30.9579 36.9551 30.7566 36.7281 30.7566H1.37856C1.15363 30.7566 0.968262 30.9579 0.968262 31.2079C0.968262 31.4578 1.15154 31.6591 1.37856 31.6591Z" stroke="white" stroke-width="0.5" stroke-miterlimit="8"/>
<path fill-rule="evenodd" clip-rule="evenodd" d="M1.37437 27.216H2.36714C2.47614 27.216 2.565 27.1223 2.565 27.0077C2.565 26.8932 2.47614 26.7994 2.36714 26.7994H1.37437C1.26538 26.7994 1.17651 26.8932 1.17651 27.0077C1.17651 27.1223 1.26538 27.216 1.37437 27.216Z" stroke="white" stroke-width="0.5" stroke-miterlimit="8"/>
<path fill-rule="evenodd" clip-rule="evenodd" d="M25.6113 26.7994C25.4981 26.7994 25.4058 26.8932 25.4058 27.0077C25.4058 27.1223 25.4981 27.216 25.6113 27.216H27.5607C27.6739 27.216 27.7662 27.1223 27.7662 27.0077C27.7662 26.8932 27.6739 26.7994 27.5607 26.7994H25.6113Z" stroke="white" stroke-width="0.5" stroke-miterlimit="8"/>
<path fill-rule="evenodd" clip-rule="evenodd" d="M30.6812 27.4277H30.9728C30.8617 27.6151 30.6666 27.7623 30.3417 27.8449C29.7662 27.9838 29.4218 27.8789 29.2052 27.6706C29.0587 27.5318 28.9588 27.336 28.9275 27.1618C28.9275 26.9014 28.9102 26.689 28.8782 26.48C28.8463 26.1162 28.7637 25.833 28.6977 25.6073C28.579 25.2901 28.4152 24.9957 28.2201 24.734C26.3915 22.268 25.7014 20.5581 25.4549 19.5598C25.1897 18.5823 24.8287 17.6541 24.4483 16.73C24.0595 15.7887 23.9047 15.0986 23.8429 14.6473C23.8262 14.5043 23.6346 14.4765 23.5943 14.6175C22.7772 17.2216 23.1292 20.9712 23.3909 22.9047C23.5416 23.5566 23.6922 24.2036 23.845 24.8534C24.3761 26.4758 24.6309 28.4267 24.7246 30.3747H19.3192C19.213 29.3417 19.2303 28.8203 19.2303 28.8203H18.9436C18.9436 28.8203 18.9603 29.3417 18.8547 30.3747H13.4494C13.5431 28.4267 13.7979 26.4758 14.329 24.8534C14.4796 24.2015 14.6303 23.5545 14.783 22.9047C15.0447 20.9733 15.3967 17.2237 14.5796 14.6175C14.5393 14.4793 14.3456 14.5043 14.3311 14.6473C14.2693 15.0986 14.1145 15.7887 13.7257 16.73C13.3452 17.6541 12.9863 18.5823 12.719 19.5598C12.4746 20.5581 11.7825 22.268 9.95384 24.734C9.75876 24.9936 9.59493 25.2901 9.47621 25.6073C9.41026 25.833 9.32972 26.1162 9.2957 26.48C9.2957 26.48 9.3443 26.8146 9.24641 27.1618C9.21448 27.336 9.1152 27.5297 8.96871 27.6706C8.75211 27.8789 8.40776 27.9838 7.83224 27.8449C7.50941 27.7623 7.31225 27.6151 7.20117 27.4277H7.49275C7.68783 27.4277 7.85168 27.2576 7.85168 27.0507C7.85168 26.8445 7.68783 26.6695 7.49275 26.6695H7.1123C7.22685 26.035 7.67325 25.3623 7.79822 25.1894C7.81557 25.1554 7.83015 25.1387 7.83015 25.1387C8.1745 24.3702 9.00065 22.5006 9.24433 21.244C9.49078 20.0367 9.91983 18.8482 10.7078 17.9582C10.7245 17.9415 10.7397 17.9415 10.7564 17.9242C10.973 17.677 11.1368 17.3986 11.2028 17.0876C11.4152 16.2101 11.8123 14.362 11.9095 12.9117C12.0248 11.1442 13.2584 9.81816 15.0066 9.55573C15.0066 9.55573 16.3721 8.52339 17.3253 8.43592L17.6079 6.54688C17.6079 6.54688 17.0324 5.60618 16.981 4.97581C16.981 4.97581 16.2742 4.46692 16.981 3.52553C16.981 3.52553 16.5033 1.04694 19.088 0.799927C21.6727 1.04694 21.1951 3.52553 21.1951 3.52553C21.9018 4.46692 21.1951 4.97581 21.1951 4.97581C21.1458 5.60618 20.5681 6.54688 20.5681 6.54688L20.8507 8.43592C21.8046 8.52339 23.1702 9.55573 23.1702 9.55573C24.9155 9.81538 26.1512 11.1442 26.2665 12.9117C26.3637 14.362 26.7608 16.2101 26.9732 17.0876C27.0392 17.4007 27.203 17.677 27.4196 17.9242C27.4363 17.9415 27.4516 17.9415 27.4682 17.9582C28.2583 18.8482 28.6873 20.0367 28.9317 21.244C29.1761 22.4985 30.0022 24.3702 30.3459 25.1387C30.3459 25.1387 30.3632 25.1554 30.3778 25.1894C30.5049 25.3644 30.9513 26.0371 31.0637 26.6695H30.6833C30.4882 26.6695 30.3244 26.8403 30.3244 27.0507C30.3244 27.2617 30.4882 27.4277 30.6833 27.4277H30.6812Z" stroke="white" stroke-width="0.5" stroke-miterlimit="8"/>
<path fill-rule="evenodd" clip-rule="evenodd" d="M12.4323 26.7994H10.5405C10.4301 26.7994 10.3406 26.8932 10.3406 27.0077C10.3406 27.1223 10.4301 27.216 10.5405 27.216H12.4323C12.542 27.216 12.6316 27.1223 12.6316 27.0077C12.6316 26.8932 12.542 26.7994 12.4323 26.7994Z" stroke="white" stroke-width="0.5" stroke-miterlimit="8"/>
<path fill-rule="evenodd" clip-rule="evenodd" d="M32.6283 26.7994H30.6789C30.5657 26.7994 30.4734 26.8932 30.4734 27.0077C30.4734 27.1223 30.5657 27.216 30.6789 27.216H32.6283C32.7415 27.216 32.8338 27.1223 32.8338 27.0077C32.8338 26.8932 32.7415 26.7994 32.6283 26.7994Z" stroke="white" stroke-width="0.5" stroke-miterlimit="8"/>
<path fill-rule="evenodd" clip-rule="evenodd" d="M7.4274 26.7994H5.47795C5.36479 26.7994 5.27246 26.8932 5.27246 27.0077C5.27246 27.1223 5.36479 27.216 5.47795 27.216H7.4274C7.54056 27.216 7.63289 27.1223 7.63289 27.0077C7.63289 26.8932 7.54056 26.7994 7.4274 26.7994Z" stroke="white" stroke-width="0.5" stroke-miterlimit="8"/>
<path fill-rule="evenodd" clip-rule="evenodd" d="M35.6802 27.216H36.7216C36.8368 27.216 36.9298 27.1223 36.9298 27.0077C36.9298 26.8932 36.8368 26.7994 36.7216 26.7994H35.6802C35.565 26.7994 35.4719 26.8932 35.4719 27.0077C35.4719 27.1223 35.565 27.216 35.6802 27.216Z" stroke="white" stroke-width="0.5" stroke-miterlimit="8"/>
</svg>
