<svg width="39" height="54" viewBox="0 0 39 54" fill="none" xmlns="http://www.w3.org/2000/svg">
<path d="M6.59839 29.2315H9.53164L12.434 24.0722L16.1457 32.4827L20.0045 20.408L23.1822 29.2315H26.4121" stroke="white" stroke-width="1.3456" stroke-miterlimit="10"/>
<path d="M28.6476 9.16138H4.36043C2.50452 9.16138 1 10.6659 1 12.5218V40.8481C1 42.704 2.50452 44.2086 4.36043 44.2086H28.6476C30.5035 44.2086 32.008 42.704 32.008 40.8481V12.5218C32.008 10.6659 30.5035 9.16138 28.6476 9.16138Z" stroke="white" stroke-width="1.3456" stroke-miterlimit="10"/>
<path d="M27.2448 5.64195L24.6841 1H16.5037H8.32336L5.7627 5.64195" stroke="white" stroke-width="1.3456" stroke-miterlimit="10"/>
<path d="M27.2448 47.728L24.6841 52.37H16.5037H8.32336L5.7627 47.728" stroke="white" stroke-width="1.3456" stroke-miterlimit="10"/>
<path d="M35.3613 15.4622H36.9205C37.1863 15.4622 37.3999 15.6757 37.3999 15.9415V20.6215C37.3999 20.8873 37.1839 21.1008 36.9205 21.1008H35.3613" stroke="white" stroke-width="1.3456" stroke-miterlimit="10"/>
<path d="M35.3613 37.9077H36.9205C37.1863 37.9077 37.3999 37.6941 37.3999 37.4283V32.7484C37.3999 32.4826 37.1839 32.269 36.9205 32.269H35.3613" stroke="white" stroke-width="1.3456" stroke-miterlimit="10"/>
</svg>
