<svg xmlns="http://www.w3.org/2000/svg" width="1440" height="220" fill="none"><g clip-path="url(#a)"><path stroke="url(#b)" stroke-linecap="round" stroke-linejoin="round" stroke-miterlimit="10" stroke-opacity=".6" stroke-width="1.889" d="M1416.14 1.607 1404.95 0m11.19 1.607h-33.15m33.15 0 11.55 1.66m-11.55-1.66h23.47M1404.95 0h4.07l4.03.004 3.94.01 3.82.02 3.66.03 3.45.047 3.2.066 2.98.083 2.55.115 2.32.134.64.047v1.05M1404.95 0h-32.62m0 0h-32.61m32.61 0 10.66 1.607M1339.72 0h-32.62m32.62 0 10.12 1.607M1307.1 0h-32.62m32.62 0 9.59 1.607M1274.48 0h-32.61m32.61 0 9.06 1.607M1241.87 0h-32.62m32.62 0 8.52 1.607M1209.25 0h-32.62m32.62 0 7.99 1.607M1176.63 0h-32.61m32.61 0 7.46 1.607M1144.02 0h-32.62m32.62 0 6.92 1.607M1111.4 0h-32.62m32.62 0 6.39 1.607M1078.78 0h-32.61m32.61 0 5.86 1.607M1046.17 0h-32.62m32.62 0 5.32 1.607M1013.55 0h-32.617m32.617 0 1.18.397 1.8.6 1.81.61M980.933 0h-32.616m32.616 0 1.052.397 3.209 1.21M948.317 0H915.7m32.617 0 3.728 1.607M915.7 0h-32.617M915.7 0l1.186.596 1.202.604.403.203.405.204M883.083 0h-32.616m32.616 0 .989.596.332.2.334.202 1.009.609M850.467 0H817.85m32.617 0 2.131 1.607M817.85 0l.197.198.197.199 1.001 1.006.203.204M817.85 0h-32.616m0 0h-32.618m32.618 0 1.065 1.607M752.616 0H720m32.616 0 .198.596.335 1.01M720 0h-32.616M720 0v1.607M687.384 0h-32.618m32.618 0-.198.596-.335 1.01M654.766 0H622.15m32.616 0-1.065 1.607M622.15 0l-.197.198-.197.199-1.001 1.006-.203.204M622.15 0h-32.616m0 0h-32.618m32.618 0-1.861 1.403-.271.204M556.916 0H524.3m32.616 0-.988.596-.332.2-.669.404-.336.203-.338.204M524.3 0h-32.617M524.3 0l-1.186.596-1.201.604-.404.203-.405.204M491.683 0h-32.616m32.616 0-3.728 1.607M459.067 0H426.45m32.617 0-1.052.397-3.209 1.21M426.45 0h-32.617m32.617 0-4.794 1.607M393.833 0h-32.616m32.616 0-5.326 1.607M361.217 0H328.6m32.617 0-5.86 1.607M328.6 0h-32.617M328.6 0l-6.392 1.607M295.983 0h-32.616m32.616 0-6.924 1.607M263.367 0h-32.616m32.616 0-7.458 1.607M230.751 0h-32.618m32.618 0-7.991 1.607M198.133 0h-32.616m32.616 0-8.523 1.607M165.517 0H132.9m32.617 0-9.056 1.607M132.9 0h-32.617M132.9 0l-9.588 1.607M100.283 0H67.667m32.616 0-10.12 1.607M67.667 0H35.05m32.617 0L57.014 1.607M35.05 0h-4.07l-4.028.004-3.945.01-3.82.02-3.655.03-3.45.047-3.205.066L5.902.26 3.35.375 1.026.51.388.556v1.05M35.05 0 23.864 1.607m66.299 0h33.149m-33.149 0h-33.15m33.15 0-10.458 1.66m43.607-1.66-9.907 1.66m9.907-1.66h33.149m66.299 0h33.149m-33.149 0h-33.15m33.15 0-2.038.41-6.218 1.25m41.405-1.66-7.705 1.66m7.705-1.66h33.15m66.298 0h33.15m-33.15 0h-33.149m33.149 0-1.494.41-.753.205-3.807 1.044m39.204-1.66-.679.205-.68.206-4.145 1.25m5.504-1.66h33.149m66.299 0-.475.204-3.378 1.455m3.853-1.66h33.149m-33.149 0h-33.149m66.298 0-.815.41-.411.206-.411.208-1.665.836m3.302-1.66h33.149m66.299 0h33.149m-33.149 0h-33.15m33.15 0-1.651 1.66m34.8-1.66-.135.205-.136.206-.137.205-.414.624-.278.42m1.1-1.66h33.15m66.298 0h33.15m-33.15 0H720m33.149 0 .551 1.66m32.599-1.66.135.205.136.206.137.205.692 1.044m-1.1-1.66h33.149m66.299 0h33.149m-33.149 0h-33.149m33.149 0 .679.41 1.376.83.347.21.35.21m30.397-1.66.815.41.411.206.412.208 1.664.836m-3.302-1.66h33.149m66.295 0h33.15m-33.15 0h-33.146m33.146 0 1.23.41.61.206 3.12 1.044m28.19-1.66.68.205.68.206 4.15 1.25m-5.51-1.66h33.15m66.3 0h33.15m-33.15 0h-33.15m33.15 0 1.77.41.89.205 4.5 1.044m25.99-1.66 7.71 1.66m-7.71-1.66h33.15m66.3 0h33.15m-33.15 0h-33.15m33.15 0 9.35 1.66m23.8-1.66 9.91 1.66m-9.91-1.66h33.15M.271 16.632h.117m33.249 0 12.656-2.12m-12.656 2.12-13.142 2.202m13.142-2.202h38.13m-38.13 0H.387m45.906-2.12H8.865m37.428 0 12.198-2.044m-12.198 2.044H83.72m-74.856 0 12.876-2.044M8.865 14.511H.388m8.477 0L.388 15.856M46.14 8.594h35.467m-35.467 0 11.573-1.837M46.14 8.594H10.676m35.465 0-11.983 1.902m47.45-1.902L92.57 6.757M81.608 8.594l-11.353 1.902m11.353-1.902h35.466m-59.36-1.837H92.57m-34.857 0 11.181-1.775m-11.18 1.775H22.857m69.714 0h34.857m-34.857 0 10.593-1.775M.022 50.1h.366m30.402 0 16.32-3.516M30.79 50.1l-17.13 3.69m17.13-3.69h49.23m-49.23 0H.388m46.723-3.516 15.565-3.352m-15.565 3.352h48.063m-48.063 0H.388m15.336-3.352h46.952m-46.952 0 15.923-3.202m-15.923 3.202H.388m15.336 0L.388 46.315m46.477-9.344h44.876m-44.876 0 14.56-2.928m-14.56 2.928H1.99m44.875 0-15.218 3.06m60.094-3.06 13.59-2.928m-13.59 2.928-14.204 3.06m14.204-3.06h44.876m-75.191-2.928h43.905m-43.905 0H17.52m43.905 0L75.37 31.24m29.961 2.803 13.014-2.803m-13.014 2.803h43.905m-47.678-8.068h41.229m-41.229 0 12.312-2.476m-12.312 2.476h-41.23m41.23 0-12.823 2.578m54.052-2.578 11.491-2.476m-11.491 2.476-11.967 2.578m11.967-2.578h41.23m-70.147-2.476h40.408m-40.408 0H73.461m40.409 0 11.831-2.378m28.577 2.378 11.043-2.378m-11.043 2.378h40.409m-46.657-6.868h38.132m-38.132 0 10.547-2.12m-10.547 2.12h-38.131m38.131 0-10.951 2.202m49.083-2.202 9.843-2.12m-9.843 2.12-10.221 2.202m10.221-2.202h38.131m-65.716-2.12h37.428m-37.428 0h-37.428m37.428 0 10.165-2.044m27.263 2.044 9.488-2.044m-9.488 2.044h37.428m-45.427-5.917h35.467m-35.467 0 9.136-1.837m-9.136 1.837h-35.465m35.465 0-9.46 1.902m44.927-1.902 8.526-1.837m-8.526 1.837-8.831 1.902m8.831-1.902h35.466m-61.797-1.837h34.857m-34.857 0 8.828-1.775m-8.828 1.775h-34.857m69.714 0h34.858m-34.858 0 8.24-1.775M25.609 111.05l22.97-6.927m-22.97 6.927-24.597 7.418m24.597-7.418h69.44m-69.44 0H.388m48.19-6.927 21.5-6.484m-21.5 6.484h67.142m-67.142 0H.388m47.724-18.28h61.081m-61.08 0L67.74 80.46m-19.628 5.382-20.846 5.715m20.846-5.716H.388m108.805 0 17.843-5.38m-17.843 5.38-18.951 5.716m18.951-5.716h61.081M67.74 80.462h59.296m-59.296 0H8.444m59.296 0 18.515-5.077m40.781 5.076 16.832-5.076m-16.832 5.076h59.297m-66.035-14.41h54.519m-54.519 0 15.687-4.3m-15.687 4.3H65.78m54.518 0-16.552 4.539m71.071-4.538 14.26-4.3m-14.26 4.3-15.048 4.538m15.048-4.538h54.518m-93.35-4.3h53.092m-53.092 0H82.893m53.092 0 14.886-4.082m38.206 4.081 13.534-4.081m-13.534 4.081h53.092M178.478 50.1h49.23m-49.23 0 12.823-3.516M178.478 50.1h-49.229m49.229 0-13.46 3.69m62.69-3.69 11.657-3.516M227.708 50.1l-12.237 3.69m12.237-3.69h49.229m-85.636-3.516h48.064m-48.064 0h-48.063m48.063 0 12.23-3.352m35.834 3.352 11.118-3.352m-11.118 3.352h48.063m-61.06-9.614h44.876m-44.876 0 10.678-2.927m-10.678 2.928h-44.876m44.876 0-11.16 3.06m56.036-3.06 9.707-2.928m-9.707 2.928-10.146 3.06m10.146-3.06h44.875m-79.073-2.928h43.905m-43.905 0h-43.905m43.905 0 10.225-2.803m33.68 2.803 9.296-2.803m-9.296 2.803h43.905m-58.38-8.068h41.229m-41.229 0 9.028-2.476m-9.028 2.476h-41.23m41.23 0-9.403 2.578m50.632-2.578 1.045-.315 7.163-2.16m-8.208 2.475-8.548 2.578m8.548-2.578h41.23m-73.431-2.476h40.409m-40.409 0h-40.408m40.408 0 8.677-2.378m31.732 2.378 7.888-2.378m-7.888 2.378h40.409m-55.767-6.868h38.132m-38.132 0 7.735-2.12m-7.735 2.12h-38.131m38.131 0-8.03 2.202m46.162-2.202 7.031-2.12m-7.031 2.12-2.705.816-4.596 1.386m7.301-2.202h38.131m-68.528-2.12h37.428m-37.428 0h-37.428m37.428 0 7.454-2.044m29.974 2.044 6.777-2.044m-6.777 2.044h37.428m-53.275-5.917h35.467m-35.467 0 6.7-1.837m-6.7 1.837h-35.466m35.466 0-6.937 1.902m42.404-1.902 4.588-1.384.752-.227.751-.226m-6.091 1.837-6.308 1.902m6.308-1.902h35.466m-64.233-1.837h34.858m-34.858 0 6.474-1.775m-6.474 1.775h-34.857m69.715 0h34.857m-34.857 0 5.884-1.775M50.768 189.958h95.605m-95.605 0 30.104-12.969m-30.104 12.969-33.08 14.252m33.08-14.252H.388m145.985 0 25.803-12.969m-25.803 12.969-28.354 14.252m28.354-14.252h95.604M80.872 176.989h91.304m-91.304 0 27.512-11.853m-27.512 11.853H.388m171.788 0 23.582-11.853m-23.582 11.853h91.304m-106.614-32.74h80.448m-80.448 0 21.468-9.25m-21.468 9.25H76.418m80.448 0-23.241 10.012m103.689-10.012 18.401-9.25m-18.401 9.25-19.921 10.012m19.921-10.012h80.447m-139.427-9.25h77.381m-77.381 0h-77.381m77.381 0 19.892-8.569m57.489 8.569 17.05-8.569m-17.05 8.569h77.381m-99.169-23.95h69.438m-69.438 0 16.078-6.927m-16.078 6.927h-69.44m69.44 0-17.219 7.418m86.657-7.418 13.782-6.927m-13.782 6.927-14.758 7.418m14.758-7.418h69.439m-122.799-6.927h67.142m-67.142 0h-67.142m67.142 0 15.049-6.484m52.093 6.484 12.9-6.484m-12.9 6.484h67.143m-91.855-18.28h61.081m-61.081 0 12.491-5.382m-12.491 5.382h-61.08m61.08 0-13.266 5.715m74.347-5.716 10.706-5.38m-10.706 5.38-11.371 5.716m11.371-5.716h61.081m-109.671-5.38h59.296m-59.296 0h-59.297m59.297 0 11.781-5.077m47.515 5.076 10.099-5.076m-10.099 5.076h59.296m-85.146-14.41h54.518m-54.518 0 9.982-4.3m-9.982 4.3h-54.519m54.519 0-10.534 4.539m65.052-4.538 8.556-4.3m-8.556 4.3-9.028 4.538m9.028-4.538h54.519m-99.055-4.3h53.092m-53.092 0h-53.092m53.092 0 9.473-4.082m43.619 4.081 8.12-4.081m-8.12 4.081h53.093M375.396 50.1h49.229m-49.229 0 8.16-3.516m-8.16 3.516h-49.23m49.23 0-8.566 3.69m57.795-3.69 6.994-3.516m-6.994 3.516-7.343 3.69m7.343-3.69h49.229m-90.298-3.516h48.063m-48.063 0h-48.064m48.064 0 7.782-3.352m40.281 3.352 6.671-3.352m-6.671 3.352h48.063M405.87 36.97h44.877m-44.877 0 6.796-2.927m-6.796 2.928h-44.875m44.875 0-7.101 3.06m51.978-3.06 5.823-2.928m-5.823 2.928-6.088 3.06m6.088-3.06h44.875m-82.956-2.928h43.904m-43.904 0H368.76m43.906 0 6.507-2.803m37.397 2.803 5.578-2.803m-5.578 2.803h43.906m-69.083-8.068h41.231m-41.231 0 5.746-2.476m-5.746 2.476h-41.229m41.229 0-5.984 2.578m47.215-2.578-.631.316-4.499 2.262m5.13-2.578 4.924-2.476m-4.924 2.476h41.229m-76.714-2.476h40.409m-40.409 0h-40.408m40.408 0 5.522-2.378m34.887 2.378 4.733-2.378m-4.733 2.378h40.409m-64.876-6.868h38.131m-38.131 0 4.922-2.12m-4.922 2.12H414.95m38.131 0-5.11 2.202m43.241-2.202 4.219-2.12m-4.219 2.12-1.623.816-1.095.55-1.662.836m4.38-2.202h38.131m-71.34-2.12h37.428m-37.428 0h-37.428m37.428 0 4.743-2.044m32.685 2.044 1.542-.775 1.017-.511 1.507-.758m-4.066 2.044h37.428m-61.122-5.917h35.465m-35.465 0 3.211-1.384L476 6.757m-4.263 1.837H436.27m35.467 0-3.855 1.66-.56.242m39.88-1.902 2.754-1.384.451-.227.45-.226m-3.655 1.837-1.875.942-1.909.96m3.784-1.902h35.467M476 6.757h34.857m-34.857 0 4.119-1.775M476 6.757h-34.857m69.714 0h34.857m-34.857 0 3.531-1.775m-81.202 184.976h95.605m-95.605 0 12.902-12.969m-12.902 12.969h-95.604m95.604 0-14.177 14.252m109.782-14.252 8.601-12.969m-8.601 12.969-9.451 14.252m9.451-14.252h95.605m-178.308-12.969h91.304m-91.304 0h-91.304m91.304 0 11.791-11.853m79.513 11.853 7.861-11.853m-7.861 11.853h91.304m-150.039-32.74h80.447m-80.447 0 9.201-9.25m-9.201 9.25h-80.448m80.448 0-9.961 10.012m90.408-10.012 6.134-9.25m-6.134 9.25-6.639 10.012m6.639-10.012h80.449m-151.695-9.25h77.38m-77.38 0h-77.381m77.381 0 8.525-8.569m68.855 8.569 5.684-8.569m-5.684 8.569h77.381m-130.936-23.95h69.439m-69.439 0 6.891-6.927m-6.891 6.927h-69.439m69.439 0-7.379 7.418m76.818-7.418 4.594-6.927m-4.594 6.927-4.919 7.418m4.919-7.418h69.439m-131.987-6.927h67.142m-67.142 0h-67.142m67.142 0 6.449-6.484m60.693 6.484 4.3-6.484m-4.3 6.484h67.142m-116.1-18.28h61.08m-61.08 0 5.353-5.382m-5.353 5.382h-61.081m61.081 0-5.685 5.715m66.765-5.716 3.569-5.38m-3.569 5.38-3.79 5.716m3.79-5.716h61.081m-116.808-5.38h59.296m-59.296 0h-59.296m59.296 0 5.049-5.077m54.247 5.076 3.367-5.076m-3.367 5.076h59.297M556.445 66.05h54.519m-54.519 0 4.278-4.3m-4.278 4.3h-54.518m54.518 0-4.514 4.539m59.033-4.538 2.851-4.3m-2.851 4.3-3.01 4.538m3.01-4.538h54.518m-104.759-4.3h53.092m-53.092 0h-53.092m53.092 0 4.06-4.082m49.032 4.081 2.707-4.081m-2.707 4.081h53.093M572.312 50.1h49.229m-49.229 0 3.497-3.516m-3.497 3.516h-49.229m49.229 0-3.67 3.69m52.899-3.69 2.332-3.516m-2.332 3.516-2.447 3.69m2.447-3.69h49.23m-94.962-3.516h48.064m-48.064 0h-48.063m48.063 0 1.27-1.275 2.066-2.077m44.728 3.352 2.224-3.352m-2.224 3.352h48.064m-86.564-9.614h44.876m-44.876 0 2.912-2.927m-2.912 2.928h-44.876m44.876 0-2.269 2.282-.775.777m47.92-3.06.738-1.112 1.203-1.815m-1.941 2.928-2.03 3.06m2.03-3.06h44.876m-86.84-2.928.355-.357 2.434-2.446m-2.789 2.803h43.905m-43.905 0H544.38m87.81 0 .707-1.065.232-.352.233-.349.687-1.037m-1.859 2.803h43.905m-79.784-8.068h41.23m-41.23 0 1.244-1.25.307-.31.305-.306.305-.306.302-.304m-2.463 2.476h-41.229m41.229 0-2.564 2.578m43.794-2.578 1.237-1.866.203-.306.201-.304m-1.641 2.476-1.709 2.578m1.709-2.578h41.23m-79.997-2.476h40.408m-40.408 0h-40.409m40.409 0 1.49-1.497.293-.296.583-.585m38.042 2.378.994-1.497.196-.296.194-.293.194-.293m-1.578 2.38h40.41m-73.986-6.869h38.132m-38.132 0 2.11-2.12m-2.11 2.12h-38.132m38.132 0-.54.543-.819.823-.831.836m40.322-2.202-.18.27-1.095 1.652-.186.28m1.461-2.202 1.406-2.12m-1.406 2.12h38.131m-74.153-2.12h37.428m-37.428 0h-37.428m37.428 0 2.033-2.044m35.395 2.044.514-.775.169-.257.17-.254.502-.758m-1.355 2.044h37.428m-68.97-5.917h35.465m-35.465 0 1.376-1.384.45-.453m-1.826 1.837h-35.467m35.467 0-.703.705-.235.237-.238.239-.717.721m37.358-1.902.155-.233.307-.464.305-.459.451-.681m-1.218 1.837-.625.942-.157.239-.319.48-.16.241m1.261-1.902h35.467m-69.106-1.837h34.857m-34.857 0 1.548-1.556.218-.219m-1.766 1.775h-34.857m69.714 0 .15-.225.149-.224.148-.224.147-.222.439-.661.145-.219m-1.178 1.775h34.858m130.461 183.201h95.605m-95.605 0-4.3-12.969m4.3 12.969H720m95.604 0 4.726 14.252m90.879-14.252-8.601-12.969m8.601 12.969 9.451 14.252m-9.451-14.252h95.601m-195.506-12.969h91.304m-91.304 0H720m91.304 0-3.93-11.853m95.234 11.853-7.861-11.853m7.861 11.853h91.304m-193.465-32.74h80.449m-80.449 0-3.066-9.25m3.066 9.25H720m80.447 0 3.321 10.012m77.128-10.012-6.134-9.25m6.134 9.25 6.64 10.012m-6.64-10.012h80.447m-163.962-9.25h77.381m-77.381 0H720m77.381 0-2.842-8.569m80.223 8.569-5.684-8.569m5.684 8.569h77.38m-162.703-23.95h69.439m-69.439 0-2.297-6.927m2.297 6.927H720m69.439 0 2.46 7.418m66.979-7.418-4.594-6.927m4.594 6.927 4.919 7.418m-4.919-7.418h69.439m-141.175-6.927h67.142m-67.142 0H720m67.142 0-2.15-6.484m69.292 6.484-4.299-6.484m4.299 6.484h67.142m-140.345-18.28h61.081m-61.081 0-1.785-5.382m1.785 5.382H720m61.081 0 1.895 5.715m59.186-5.716-3.569-5.38m3.569 5.38 3.79 5.716m-3.79-5.716h61.08m-123.946-5.38h59.297m-59.297 0H720m59.296 0-1.683-5.077m60.98 5.076-3.367-5.076m3.367 5.076h59.296M774.518 66.05h54.518m-54.518 0-1.426-4.3m1.426 4.3H720m54.518 0 1.505 4.539m53.013-4.538-2.851-4.3m2.851 4.3 3.01 4.538m-3.01-4.538h54.519m-110.463-4.3h53.093m-53.093 0H720m53.092 0-1.353-4.082m54.446 4.081-2.707-4.081m2.707 4.081h53.092M769.229 50.1h49.23m-49.23 0-1.166-3.516m1.166 3.516H720m49.229 0 1.224 3.69m48.006-3.69-2.332-3.516m2.332 3.516 2.447 3.69m-2.447-3.69h49.229m-99.625-3.516h48.064m-48.064 0H720m48.063 0-1.111-3.352m49.175 3.352-2.224-3.352m2.224 3.352h48.064m-99.316-9.614h44.876m-44.876 0-.97-2.927m.97 2.928H720m44.875 0 1.015 3.06m43.861-3.06-1.703-2.569-.238-.359m1.941 2.928 2.03 3.06m-2.03-3.06h44.876m-90.722-2.928-.118-.357-.812-2.446m.93 2.803h43.905m-43.905 0H720m87.81 0-.707-1.065-.232-.352-.233-.349-.687-1.037m1.859 2.803h43.905m-90.486-8.068h41.23m-41.23 0-.82-2.476m.82 2.476H720m41.229 0 .317.954.107.321.106.323.216.651.11.329m40.374-2.578-1.237-1.866-.405-.61m1.642 2.476 1.709 2.578m-1.709-2.578h41.23m-83.28-2.476h40.408m-40.408 0H720m40.409 0-.789-2.378m41.197 2.378-.992-1.497-.197-.296-.194-.293-.194-.293m1.577 2.38h40.409m-83.095-6.869h38.131m-38.131 0-.703-2.12m.703 2.12H720m38.131 0 .73 2.202m37.401-2.202.18.27 1.095 1.652.186.28m-1.461-2.202-1.406-2.12m1.406 2.12h38.132m-76.966-2.12h37.428m-37.428 0H720m37.428 0-.677-2.044m38.105 2.044-.514-.775-.169-.257-.17-.254-.502-.758m1.355 2.044h37.428m-76.817-5.917h35.466m-35.466 0-.61-1.837m.61 1.837H720m35.467 0 .63 1.902m34.836-1.902-.155-.233-.308-.464-.152-.23-.303-.457-.15-.227-.151-.226m1.219 1.837.625.942.157.239.319.48.16.241m-1.261-1.902h35.466m-71.542-1.837-.074-.225-.075-.224-.074-.224-.365-1.102m.588 1.775h34.857m-34.857 0H720m69.714 0h34.858m-34.858 0-.298-.45-.148-.223-.147-.222-.438-.661-.146-.219m409.483 184.976h95.61m-95.61 0-21.5-12.969m21.5 12.969h-95.6m95.6 0 23.63 14.252m71.98-14.252-25.81-12.969m25.81 12.969 28.35 14.252m-28.35-14.252h95.6m-212.71-12.969h91.3m-91.3 0h-91.3m91.3 0-19.65-11.853m110.95 11.853-23.58-11.853m23.58 11.853h91.31m-236.89-32.74h80.45m-80.45 0-15.34-9.25m15.34 9.25h-80.45m80.45 0 16.6 10.012m63.85-10.012-18.4-9.25m18.4 9.25 19.92 10.012m-19.92-10.012h80.44m-176.23-9.25h77.39m-77.39 0h-77.38m77.38 0-14.2-8.569m91.59 8.569-17.06-8.569m17.06 8.569h77.38m-194.47-23.95h69.43m-69.43 0-11.49-6.927m11.49 6.927h-69.444m69.444 0 12.29 7.418m57.14-7.418-13.78-6.927m13.78 6.927 14.76 7.418m-14.76-7.418h69.44m-150.36-6.927h67.14m-67.14 0h-67.142m67.142 0-10.75-6.484m77.89 6.484-12.9-6.484m12.9 6.484h67.14m-164.59-18.28h61.08m-61.08 0-8.92-5.382m8.92 5.382h-61.077m61.077 0 9.48 5.715m51.6-5.716-10.7-5.38m10.7 5.38 11.38 5.716m-11.38-5.716h61.09m-131.09-5.38h59.3m-59.3 0h-59.295m59.295 0-8.41-5.077m67.71 5.076-10.1-5.076m10.1 5.076h59.29M992.591 66.05h54.519m-54.519 0-7.13-4.3m7.13 4.3h-54.518m54.518 0 7.529 4.539m46.99-4.538-8.56-4.3m8.56 4.3 9.03 4.538m-9.03-4.538h54.52m-116.169-4.3h53.089m-53.089 0h-53.092m53.092 0-6.766-4.082m59.855 4.081-8.12-4.081m8.12 4.081h53.1M966.146 50.1h49.234m-49.234 0-5.828-3.516m5.828 3.516h-49.229m49.229 0 6.119 3.69m43.115-3.69-7-3.516m7 3.516 7.34 3.69m-7.34-3.69h49.22m-104.282-3.516h48.062m-48.062 0h-48.064m48.064 0-5.559-3.352m53.621 3.352-6.67-3.352m6.67 3.352h48.06M944.378 36.97l.622.376.626.377 3.825 2.307m-5.073-3.06h44.876m-44.876 0-4.853-2.927m4.853 2.928h-44.875m89.751 0-5.824-2.928m5.824 2.928 6.087 3.06m-6.087-3.06h44.876m-94.605-2.928h43.905m-43.905 0H895.62m43.905 0-4.648-2.803m48.553 2.803-5.578-2.803m5.578 2.803h43.9m-101.183-8.068h41.23m-41.23 0-4.104-2.476m4.104 2.476h-41.229m41.229 0 4.274 2.578m36.956-2.578-3.102-1.56-1.823-.916m4.925 2.476 5.129 2.578m-5.129-2.578h41.233m-86.567-2.476h40.409m-40.409 0h-40.408m40.408 0-3.458-2.086-.485-.293m44.352 2.38-4.732-2.38m4.732 2.38h40.408m-92.203-6.869h38.131m-38.131 0-.891-.538-2.625-1.582m3.516 2.12h-38.131m38.131 0 .899.543 1.826 1.1.925.559m34.481-2.202-4.219-2.12m4.219 2.12 1.623.816 1.095.55 1.662.836m-4.38-2.202h38.131m-79.778-2.12h37.428m-37.428 0h-37.429m37.429 0-2.553-1.54-.836-.504m40.817 2.044-1.542-.775-1.017-.511-1.507-.758m4.066 2.044h37.428m-84.666-5.917h35.467m-35.467 0-1.916-1.156-1.129-.681m3.045 1.837h-35.466m35.466 0 3.154 1.902m32.313-1.902-2.754-1.384-.451-.227-.45-.226m3.655 1.837 1.875.942 1.909.96m-3.784-1.902h35.465m-73.977-1.837h34.857m-34.857 0-1.484-.895-.732-.442-.364-.22-.362-.218m2.942 1.775h-34.857m69.714 0H964m-34.857 0-3.531-1.775M1416.43 135h-77.38m77.38 0-25.58-8.569m25.58 8.569h23.18m-23.18 0 23.18 7.769m-94.66-31.719h69.44m-69.44 0-20.67-6.927m20.67 6.927h-69.44m69.44 0 22.14 7.418m47.3-7.418-22.97-6.927m22.97 6.927 24.6 7.418m-24.6-7.418h25.22m-115.33-6.927h67.14m-67.14 0h-67.14m67.14 0-19.35-6.484m86.49 6.484-21.5-6.484m21.5 6.484h48.19m-169.88-18.28h61.08m-61.08 0-16.06-5.382m16.06 5.382h-61.08m61.08 0 17.05 5.715m44.03-5.716-17.85-5.38m17.85 5.38 18.95 5.716m-18.95-5.716h61.08m-138.22-5.38h59.29m-59.29 0h-59.3m59.3 0-15.15-5.077m74.44 5.076-16.83-5.076m16.83 5.076h59.3m-161.6-14.41h54.52m-54.52 0-12.83-4.3m12.83 4.3h-54.51m54.51 0 13.55 4.539m40.97-4.538-14.26-4.3m14.26 4.3 15.05 4.538m-15.05-4.538h54.52m-121.87-4.3h53.09m-53.09 0h-53.09m53.09 0-12.18-4.082m65.27 4.081-13.53-4.081m13.53 4.081h53.1M1163.06 50.1h49.23m-49.23 0-10.49-3.516m10.49 3.516h-49.23m49.23 0 11.02 3.69m38.21-3.69-11.65-3.516m11.65 3.516 12.24 3.69m-12.24-3.69h49.23m-108.95-3.516h48.07m-48.07 0h-48.06m48.06 0-10-3.352m58.07 3.352-11.12-3.352m11.12 3.352h48.06m-124.82-9.614h44.88m-44.88 0-8.74-2.927m8.74 2.928H1079m44.88 0 9.13 3.06m35.75-3.06-9.71-2.928m9.71 2.928 10.14 3.06m-10.14-3.06h44.87m-98.49-2.928h43.91m-43.91 0h-43.9m43.9 0-8.36-2.803m52.27 2.803-9.3-2.803m9.3 2.803h43.9m-111.88-8.068h41.22m-41.22 0-7.39-2.476m7.39 2.476h-41.23m41.23 0 7.69 2.578m33.53-2.578-8.2-2.476m8.2 2.476 8.55 2.578m-8.55-2.578h41.23m-89.84-2.476h40.41m-40.41 0h-40.41m40.41 0-7.1-2.378m47.51 2.378-7.89-2.378m7.89 2.378h40.41m-101.32-6.868h38.13m-38.13 0-6.33-2.12m6.33 2.12h-38.13m38.13 0 1.62.543.82.273 4.13 1.386m31.56-2.202-7.03-2.12m7.03 2.12 7.3 2.202m-7.3-2.202h38.13m-82.59-2.12h37.43m-37.43 0h-37.42m37.42 0-6.1-2.044m43.53 2.044-6.77-2.044m6.77 2.044h37.43m-92.51-5.917h35.46m-35.46 0-5.49-1.837m5.49 1.837h-35.47m35.47 0 5.67 1.902m29.79-1.902-4.59-1.384-.75-.227-.75-.226m6.09 1.837 6.31 1.902m-6.31-1.902h35.47m-76.42-1.837h34.86m-34.86 0-4.64-1.556-.65-.219m5.29 1.775h-34.853m69.713 0h34.86m-34.86 0-5.88-1.775m366.05 61.069-18.54-4.3m18.54 4.3h-54.52m54.52 0 10.87 2.522m-10.87-2.522h10.87m-29.41-4.3h-53.09m53.09 0-17.59-4.082m17.59 4.081h29.41m-79.63-11.65h49.23m-49.23 0-15.15-3.516m15.15 3.516h-49.23m49.23 0 15.91 3.69m33.32-3.69-16.32-3.516m16.32 3.516 17.13 3.69m-17.13-3.69h30.4m-94.78-3.516h48.06m-48.06 0h-48.07m48.07 0-14.46-3.352m62.52 3.352-15.57-3.352m15.57 3.352h46.72m-136.23-9.614h44.88m-44.88 0-12.62-2.927m12.62 2.928h-44.87m44.87 0 13.19 3.06m31.69-3.06-13.59-2.928m13.59 2.928 14.2 3.06m-14.2-3.06h44.87m-102.37-2.928h43.91m-43.91 0h-43.9m43.9 0-12.08-2.803m55.99 2.803-13.01-2.803m13.01 2.803h43.9m-122.59-8.068h41.23m-41.23 0-10.67-2.476m10.67 2.476h-41.23m41.23 0 11.12 2.578m30.11-2.578-11.49-2.476m11.49 2.476 11.97 2.578m-11.97-2.578h41.23m-93.13-2.476h40.41m-40.41 0h-40.41m40.41 0-10.25-2.378m50.66 2.378-11.04-2.378m11.04 2.378h40.41m-110.42-6.868h38.13m-38.13 0-9.14-2.12m9.14 2.12h-38.13m38.13 0 9.49 2.202m28.64-2.202-9.85-2.12m9.85 2.12 10.22 2.202m-10.22-2.202h38.13m-85.4-2.12h37.42m-37.42 0h-37.43m37.43 0-8.81-2.044m46.23 2.044-9.48-2.044m9.48 2.044h37.43m-100.36-5.917h35.47m-35.47 0-7.92-1.837m7.92 1.837h-35.47m35.47 0 8.2 1.902m27.27-1.902L1208 6.757m8.53 1.837 8.83 1.902m-8.83-1.902h35.46m-78.85-1.837H1208m-34.86 0-7.65-1.775m7.65 1.775h-34.85m69.71 0h34.86m-34.86 0-8.24-1.775m221.14 20.993-13.95-2.476m13.95 2.476h-41.23m41.23 0 14.53 2.578m-14.53-2.578h18.71m-32.66-2.476h-40.41m40.41 0-13.41-2.378m13.41 2.378h32.66m-71.38-6.868h38.13m-38.13 0-11.95-2.12m11.95 2.12h-38.13m38.13 0 12.41 2.202m25.72-2.202-12.65-2.12m12.65 2.12 13.14 2.202m-13.14-2.202h33.25m-83.33-2.12h37.43m-37.43 0h-37.43m37.43 0-11.52-2.044m48.95 2.044-12.2-2.044m12.2 2.044h37.43m-108.21-5.917h35.46m-35.46 0-10.36-1.837m10.36 1.837h-35.47m35.47 0 10.72 1.902m24.74-1.902-10.96-1.837m10.96 1.837 11.35 1.902m-11.35-1.902h35.47m-81.29-1.837h34.86m-34.86 0-10-1.775m10 1.775h-34.86m69.72 0h34.86m-34.86 0-10.59-1.775m32.9 5.514 11.77 1.971m-11.77-1.971h36.1m-36.1 0h-36.09m60.21-1.902-11.57-1.837m11.57 1.837 11.98 1.902m-11.98-1.902h35.46m-47.03-1.837h34.85m-34.85 0-11.19-1.775m-34.26 0h-34.27m34.27 0h34.26m-34.26 0-10.24-1.716m79.24 7.23 12.42 1.971m-12.42-1.971h33.77m-10.29-1.902-12.18-1.837m12.18 1.837 10.29 1.551m-10.29-1.551h10.29m-22.47-1.837-11.77-1.775m11.77 1.775h22.47m-68.51-1.775h34.27m-34.27 0-10.81-1.716m45.08 1.716-11.38-1.716m11.38 1.716h34.24m-58.1 7.485h36.75m-36.75 0h-36.75m86.38 2.044-12.88-2.044m12.88 2.044 8.47 1.345m-8.47-1.345h8.47m-21.35-2.044h21.35m-94.85 0h-36.75m36.75 0-11.11-1.971m0 0h-36.1m121.95 8.337 13.66 2.288m-13.66-2.288h-38.86m38.86 0h20.11m.12-2.202h-.12m-6.45 4.49h-39.62m39.62 0 6.45 1.08m-6.45-1.08h6.45m-46.07 0h-39.62m39.62 0-12.9-2.288m0 0h-38.86m-116.42-8.337 9.15 1.971m-9.15-1.971h36.09m-36.09 0h-36.1m62.73-1.902-9.13-1.837m9.13 1.837 9.46 1.902m-9.46-1.902h35.47m-44.6-1.837h34.85m-34.85 0-8.83-1.775m-34.27 0h34.27m-34.27 0-7.96-1.716m7.96 1.716h-34.27m95.96 5.514 9.81 1.971m-9.81-1.971h36.1m-10.09-1.902-9.75-1.837m9.75 1.837 10.09 1.902m-19.84-3.74-9.41-1.774m-34.27 0h34.27m-34.27 0-8.53-1.716m72.05 7.23 10.46 1.971m-5.44-7.485h-34.27m34.27 0-9.68-1.716m-24.59 1.716-9.1-1.716m-24.69 9.201h36.75m-36.75 0h-36.75m83.66 2.044-10.16-2.044m10.16 2.044 10.55 2.12m-10.55-2.12h37.43m-47.59-2.044h36.75m-110.25 0h-36.75m36.75 0-8.5-1.971m118.75 1.971 10.84 2.044m-129.59-4.015h-36.1m138.81 6.135 10.95 2.202m-10.95-2.202h38.13m-11.25-2.12 11.25 2.12m0 0 11.68 2.202m-77.72 0 10.62 2.288m-10.62-2.288h38.86m-38.86 0h-38.86m77.72 0 11.38 2.288m-11.38-2.288h38.86m0 0 12.14 2.288m-79.24 0h39.62m-39.62 0h-39.62m91.07 2.378-11.83-2.378m11.83 2.378 12.31 2.476m-12.31-2.476h40.41m-52.24-2.378h39.62m-118.86 0h-39.62m39.62 0-9.86-2.288m128.72 2.288 12.62 2.378m-141.34-4.666h-38.86m152.1 7.142 12.83 2.578m-12.83-2.578h41.23m-13.13-2.476 13.13 2.476m0 0 13.68 2.578m-84.17 0 12.48 2.687m-12.48-2.687h42.09m-42.09 0h-42.08m84.17 0 13.36 2.687m-13.36-2.687h42.08m0 0 14.26 2.687m-14.26-2.687h42.08m0 0h4.18m-4.18 0 4.18.74m-117.95 1.947h42.97m-42.97 0h-42.98m99.89 2.803-13.94-2.803m13.94 2.803 14.56 2.928m-14.56-2.928h43.91m-57.85-2.803h42.98m-128.93 0h-42.98m42.98 0-11.58-2.687m140.51 2.687 14.87 2.803m-14.87-2.803h32m-172.51-2.687h-42.09m168.12 8.418 15.22 3.06m-15.22-3.06h44.88m-15.53-2.928 15.53 2.928m-15.53-2.928h17.13m.23-2.803h-.23m-1.6 5.73 1.6.303m-1.6-.303h1.6m-77.15 3.06 14.86 3.202m-14.86-3.202h45.89m-45.89 0h-45.89m91.78 0 15.93 3.202m-15.93-3.202h31.26m.39-2.684-.39-.073m-62.29 5.959h46.96m-46.96 0h-46.95m93.91 0h15.33m-15.33 0 15.33 3.083m-109.24-3.083h-46.95m46.95 0-13.8-3.202m0 0h-45.89m155.66 13.76h-50.45m50.45 0 13.27 2.86m-13.27-2.86h13.27m.37-3.69h-.37m-63.72 3.69h-50.46m50.46 0 16.72 3.879m47.15-.988-.15-.032m-358.64-46.153 6.54 1.971m-6.54-1.971h36.1m-36.1 0h-36.1m65.26-1.902-6.7-1.837m6.7 1.837 6.94 1.902m-6.94-1.902h35.46m-42.16-1.837h34.86m-34.86 0-6.47-1.775m-34.27 0h34.27m-34.27 0-2.16-.65-3.53-1.066m5.69 1.716h-34.27m88.65 5.514 7.19 1.971m-7.19-1.971h36.09m-7.57-1.902-7.3-1.837m7.3 1.837 7.57 1.902m-14.87-3.74-7.07-1.774m-34.26 0h34.26m-34.26 0-6.26-1.716m62.46 7.23 7.85 1.971m4.48-7.485-7.39-1.716m7.39 1.716h-34.27m0 0-.86-.218-1.72-.432-4.24-1.066m-36.89 9.201h36.75m-36.75 0h-36.76m80.96 2.044-7.45-2.044m7.45 2.044 7.73 2.12m-7.73-2.12h37.43m-44.88-2.044h36.75m-110.26 0H1014m36.75 0-5.88-1.971m116.14 1.971 8.13 2.044m-124.27-4.015h-36.09m130.66 6.135 8.04 2.202m-8.04-2.202h38.14m-8.44-2.12 1.04.26 7.4 1.86m0 0 8.76 2.202m-77.73 0 .94.281 6.65 2.006m-7.59-2.287h38.87m-38.87 0h-38.86m77.73 0 8.34 2.288m-8.34-2.288h38.86m0 0 9.1 2.288m-79.24 0h39.62m-39.62 0h-39.62m87.92 2.378-8.68-2.378m8.68 2.378 9.02 2.476m-9.02-2.476h40.4m-49.08-2.378h39.62m-118.86 0h-39.62m39.62 0-6.83-2.288m125.69 2.288 9.46 2.378m-135.15-4.666h-38.86m142.63 7.142 9.41 2.578m-9.41-2.578h41.23m-9.85-2.476 9.85 2.476m0 0 10.26 2.578m-84.17 0 8.91 2.687m-8.91-2.687h42.09m-42.09 0h-42.08m84.17 0 9.8 2.687m-9.8-2.687h42.08m0 0 10.69 2.687m-85.95 0h42.98m-42.98 0h-42.97m96.17 2.803-10.22-2.803m10.22 2.803 10.68 2.928m-10.68-2.928h43.91m-54.13-2.803h42.97m-128.92 0h-42.98m42.98 0-8.02-2.687m136.94 2.687 11.16 2.803m-148.1-5.49h-42.09m156.96 8.418 11.16 3.06m-11.16-3.06h44.88m-11.65-2.928 11.65 2.928m0 0 12.17 3.06m-91.78 0 10.62 3.2m-10.62-3.2h45.89m-45.89 0h-45.89m91.78 0 11.68 3.2m-11.68-3.2h45.89m0 0 12.74 3.2m-93.9 0h46.95m-46.95 0h-46.95m106.13 3.353-12.23-3.352m12.23 3.352 12.82 3.516m-12.82-3.516h48.06m-60.29-3.352h46.95m-140.85 0h-46.96m46.96 0-9.56-3.202m150.41 3.202 13.34 3.352m-163.75-6.554h-45.89m174.4 10.07 13.46 3.69m-13.46-3.69h49.23m-13.99-3.516 13.99 3.516m0 0 14.68 3.69m-100.9 0 12.86 3.879m-12.86-3.878h50.45m-50.45 0h-50.45m100.9 0 14.15 3.878m-14.15-3.878h50.45m0 0 15.44 3.878m-103.48 0h51.74m-51.74 0h-51.74m118.37 4.081-14.89-4.081m14.89 4.081 15.68 4.3m-15.68-4.3h53.09m-67.98-4.081h51.74m-155.22 0h-51.74m51.74 0-11.57-3.878m166.79 3.878 16.24 4.081m-16.24-4.081h51.74m-218.53-3.878h-50.46m196.08 12.26 16.55 4.538m-16.55-4.538h54.52m-17.11-4.3 17.11 4.3m18.39-8.382h47m-65.39 8.382 18.06 4.538m-112.05 0 15.9 4.795m-15.9-4.795h56.02m-56.02 0h-56.02m112.04 0 17.5 4.795m-17.5-4.795h56.03m0 0 19.08 4.795m-19.08-4.795h47.33m-143.48 4.795h57.62m-57.62 0h-57.61m133.74 5.076-18.51-5.076m18.51 5.076 19.63 5.382m-19.63-5.382h59.3m-77.81-5.076h57.61m-172.84 0h-57.61m57.61 0-14.31-4.795m187.15 4.795 20.2 5.076m-20.2-5.076h28.25m-215.4-4.795h-56.03m223.71 15.252 20.84 5.716m-20.84-5.716h47.72m-8.05-5.38h8.05m-8.05 0 8.05 2.024m-89.85 9.072 20.16 6.081m-20.16-6.08h62.97m-62.97 0h-62.98m125.95 0 22.18 6.08m-22.18-6.08h26.88m-69.69 6.08h64.99m-64.99 0h-64.99m129.98 0 4.7 1.288m-4.7-1.288h4.7m-134.68 0h-64.99m64.99 0-18.15-6.08m0 0h-62.97m215.18 26.909h-71.9m71.9 0h.62m-.62 0 .62.188m-72.52-.188h-71.9m71.9 0 23.76 7.963M936.582 10.496l1.454.73.489.247 1.978.994m-3.921-1.971h36.097m-36.097 0h-36.097m67.778-1.902-3.211-1.384L964 6.757m4.263 1.837 3.856 1.66.56.242m-4.416-1.902h35.467M964 6.757h34.857m-34.857 0-4.119-1.775m-34.269 0h34.269m-34.269 0-1.294-.65-2.12-1.066m3.414 1.716h-34.268m81.335 5.514 1.128.486 3.447 1.485m-4.575-1.971h36.101m-5.05-1.902-4.873-1.837m4.873 1.837 5.05 1.902m-9.923-3.74-3.546-1.336-1.162-.438m-34.268 0h34.268m-34.268 0-3.983-1.716m52.882 7.23 5.22 1.971m14.42-7.485-.65-.218-4.47-1.498m5.12 1.716h-34.271m0 0-1.725-.65-2.826-1.066m-49.095 9.201h36.751m-36.751 0h-36.751m78.245 2.044-4.743-2.044m4.743 2.044 4.922 2.12m-4.922-2.12h37.433m-42.176-2.044H1014m-110.248 0h-36.75m36.75 0-3.267-1.971M1014 12.467l5.43 2.044m-118.945-4.015h-36.097m122.531 6.135 3.171 1.366.644.277 1.295.559m-5.11-2.202h38.131m-5.62-2.12 5.62 2.12m0 0 5.84 2.202m-77.722 0 4.552 2.288m-4.552-2.288h38.861m-38.861 0h-38.861m77.722 0 5.31 2.288m-5.31-2.288h38.861m0 0 6.07 2.288m-79.24 0h39.619m-39.619 0H918.1m84.76 2.378-3.476-1.497-.684-.296-1.361-.585m5.521 2.378 5.75 2.476m-5.75-2.476h40.41m-45.931-2.378h39.621m-118.86 0h-39.62m39.62 0-3.793-2.288m122.653 2.288 6.31 2.378m-128.963-4.666h-38.862m133.165 7.142 5.98 2.578m-5.98-2.578h41.23m-6.57-2.476 6.57 2.476m0 0 6.83 2.578m-84.164 0 2.645 1.329.67.337 2.031 1.02m-5.346-2.686h42.084m-42.084 0h-42.085m84.169 0 6.24 2.687m-6.24-2.687h42.08m0 0 7.13 2.687m-85.948 0h42.978m-42.978 0h-42.975m92.453 2.803-6.5-2.803m6.5 2.803 6.8 2.928m-6.8-2.928h43.91m-50.41-2.803h42.97m-128.923 0h-42.976m42.976 0-1.132-.683-3.324-2.004M1063.8 31.24l7.44 2.803m-140.819-5.49h-42.083m145.792 8.418 7.1 3.06m-7.1-3.06H1079m-7.76-2.928 7.76 2.928m0 0 8.12 3.06m-91.779 0 6.369 3.2m-6.369-3.2h45.889m-45.889 0h-45.89m91.779 0 7.43 3.2m-7.43-3.2h45.89m0 0 8.49 3.2m-93.9 0h46.95m-46.95 0h-46.951m101.681 3.353-7.78-3.352m7.78 3.352 8.16 3.516m-8.16-3.516h48.07m-55.85-3.352h46.95m-140.851 0h-46.952m46.952 0-5.308-3.202m146.159 3.202 8.9 3.352M949.451 40.03h-45.89M1064.6 50.1l8.57 3.69m-8.57-3.69h49.23m-9.32-3.516 9.32 3.516m0 0 9.79 3.69m-100.9 0 7.71 3.879m-7.71-3.878h50.45m-50.45 0h-50.455m100.905 0 9 3.878m-9-3.878h50.45m0 0 10.29 3.878m-103.48 0h51.74m-51.74 0h-51.735m112.955 4.081-9.48-4.081m9.48 4.081 9.98 4.3m-9.98-4.3h53.09m-62.57-4.081h51.74m-155.215 0h-51.739m51.739 0-6.43-3.878m161.645 3.878 10.83 4.081m-172.475-7.96h-50.453m179.818 12.26 10.53 4.539m-10.53-4.538h54.52m-11.41-4.3 11.41 4.3m0 0 12.03 4.538m-112.04 0 9.54 4.795m-9.54-4.795h56.02m-56.02 0h-56.02m112.04 0 11.13 4.795m-11.13-4.795h56.02m0 0 12.73 4.795m-115.23 0h57.61m-57.61 0h-57.61m127 5.076-11.78-5.076m11.78 5.076 12.5 5.382m-12.5-5.382h59.3m-71.08-5.076h57.62m-172.84 0h-57.617m57.617 0-7.95-4.795m180.79 4.795 13.46 5.076m-194.25-9.871h-56.027m203.477 15.252 13.26 5.716m-13.26-5.716h61.08m-14.28-5.38 14.28 5.38m0 0 15.16 5.716m-125.95 0 12.09 6.081m-12.09-6.08h62.97m-62.97 0h-62.98m125.95 0 14.12 6.08m-14.12-6.08h62.98m0 0 16.13 6.08m-129.99 0h65m-65 0h-64.99m145.03 6.484-15.04-6.484m15.04 6.484 16.08 6.927m-16.08-6.927h67.15m-82.19-6.484h64.99m-194.98 0h-64.991m64.991 0-10.08-6.08m205.06 6.08 17.2 6.484m-222.26-12.565h-62.977m234.167 19.492 17.22 7.418m-17.22-7.418h69.44m-18.37-6.927 18.37 6.927m0 0 19.68 7.418m-143.8 0 15.84 7.963m-15.84-7.963h71.9m-71.9 0h-71.9m143.8 0 18.48 7.963m-18.48-7.963h71.9m0 0 21.12 7.963m-149.08 0h74.54m-74.54 0h-74.53m168.97 8.569-19.9-8.569m19.9 8.569 21.46 9.25m-21.46-9.25h77.38m-97.28-8.569h74.54m-223.61 0h-74.54m74.54 0-13.21-7.963m236.82 7.963 22.74 8.569m-22.74-8.569h74.54m-311.36-7.963h-71.89m275.53 25.782 23.24 10.012m-23.24-10.012h80.45m-24.53-9.25 24.53 9.25m27.27-17.819h48.76m-76.03 17.819 26.56 10.012m-26.56-10.012h76.03m-217 10.012 21.63 10.875m-21.63-10.875h83.76m-83.76 0h-83.77m167.53 0 25.25 10.875m-25.25-10.875h83.77m0 0 28.85 10.875m-28.85-10.875h49.47m-195.37 10.875h87.38m-87.38 0h-87.37m202.26 11.853-27.51-11.853m27.51 11.853 30.1 12.969m-30.1-12.969h80.48m-107.99-11.853h87.37m-262.12 0h-87.38m87.38 0-18.03-10.875m280.15 10.875h20.62m-20.62 0 20.62 7.774m-300.77-18.649h-83.77m334.16 35.697 33.08 14.252m-33.08-14.252h50.38m-117.63 14.252 31.3 15.734m-31.3-15.734h100.33m-100.33 0h-100.33m200.66 0 17.3 7.454m-17.3-7.454h17.3m-86.33 15.734h-105.54m105.54 0h86.33m-191.87 0h-105.55m105.55 0-26.09-15.734m0 0h-100.33M792.194 10.496l.161.242.161.244.163.245.162.246.494.744.166.25m-1.307-1.971h36.097m-36.097 0h-36.097m70.302-1.902-1.377-1.384-.45-.453m1.827 1.837 1.175 1.18.717.722m-1.892-1.902h35.466m-37.293-1.837h34.857m-34.857 0-1.33-1.337-.436-.438m-34.269 0-.144-.218-.571-.861-.423-.637m1.138 1.716h34.269m-34.269 0h-34.268m74.022 5.514.241.242.243.244.243.245.245.246.988.994m-1.96-1.971h36.097m-2.523-1.902L860.03 7.21l-.601-.453m2.436 1.837 2.523 1.902m-4.959-3.74-1.188-.894-.877-.661-.289-.219m-34.269 0-.216-.218-.43-.432-.428-.429-.211-.213-.422-.424m1.707 1.716h34.269m7.313 5.514 1.952 1.471.662.5m24.342-7.485-2.143-1.292-.702-.424m2.845 1.716h-34.269m0 0-1.995-1.504-.282-.212m-61.297 9.201h36.75m-36.75 0h-36.75m75.533 2.044-2.033-2.044m2.033 2.044 2.11 2.12m-2.11-2.12h37.428m-39.461-2.044h36.751m-110.251 0H720m36.751 0-.654-1.971m110.905 1.971 2.71 2.044m-113.615-4.015H720m114.394 6.135.54.543.819.823.831.836m-2.19-2.202h38.132m-2.814-2.12.347.26 2.467 1.86m0 0 .358.27.361.273.362.273 1.838 1.386m-77.722 0 1.517 2.288m-1.517-2.288h38.861m-38.861 0h-38.862m77.723 0 2.276 2.288m-2.276-2.288h38.861m0 0 2.265 1.707.384.29.386.29m-79.24 0h39.62m-39.62 0h-39.62m81.606 2.38.302.303.305.306.305.307 1.551 1.559m-2.463-2.476-1.195-1.2-.295-.297-.293-.296-.583-.585m2.366 2.378h40.409m-42.775-2.378h39.62m-118.86 0H720m39.62 0-.759-2.288M878.48 21.12l3.155 2.378m-122.774-4.666H720m123.689 7.142 2.238 2.25.326.328m-2.564-2.578h41.229m-3.283-2.476.809.61 2.474 1.866m0 0 1.266.954 2.154 1.624m-84.17 0 .883 1.329.222.337.678 1.02m-1.783-2.686h42.085m-42.085 0h-42.083m84.168 0 2.673 2.687m-2.673-2.687h42.085m0 0 3.563 2.687m-85.95 0h42.975m-42.975 0h-42.976m88.74 2.803-2.789-2.803m2.789 2.803 2.912 2.928m-2.912-2.928h43.905m-46.694-2.803h42.975m-128.926 0H720m42.975 0-.226-.683-.445-1.343-.219-.661m129.816 2.687 3.719 2.803m-133.535-5.49H720m134.627 8.418 2.27 2.282.774.777m-3.044-3.06h44.876m-3.883-2.927 3.883 2.928m0 0 2.006 1.512 2.052 1.547m-91.78 0 2.122 3.202m-2.122-3.202h45.89m-45.89 0H765.89m91.781 0 3.184 3.202m-3.184-3.202h45.89m0 0 4.246 3.202m-93.904 0h46.952m-46.952 0h-46.951m97.239 3.352-.849-.852-2.487-2.5m3.336 3.352 3.497 3.516m-3.497-3.516h48.063m-51.399-3.352h46.952m-140.855 0H720m46.952 0-1.062-3.202m141.917 3.202 4.447 3.352M765.89 40.03H720M867.688 50.1l3.671 3.69m-3.671-3.69h49.229m-4.663-3.516 4.663 3.516m0 0 4.895 3.69m-100.906 0 2.572 3.879m-2.572-3.878h50.453m-50.453 0h-50.453m100.906 0 3.858 3.878m-3.858-3.878h50.453m0 0 5.144 3.878m-103.478 0h51.739m-51.739 0h-51.739m107.538 4.081-4.06-4.081m4.06 4.081 4.278 4.3m-4.278-4.3h53.092m-57.152-4.081h51.739m-155.217 0H720m51.739 0-1.129-3.404-.157-.474m156.503 3.878 5.413 4.081m-161.916-7.96H720m163.555 12.26 4.514 4.539m-4.514-4.538h54.518m-5.704-4.3 4.249 3.203 1.455 1.097m0 0 6.02 4.538m-112.047 0 3.18 4.795m-3.18-4.795h56.023m-56.023 0h-56.023m112.046 0 4.771 4.795m-4.771-4.795h56.024m0 0 6.36 4.795m-115.227 0h57.614m-57.614 0h-57.613m120.276 5.076-5.049-5.076m5.049 5.076 5.353 5.382m-5.353-5.382h59.296m-64.345-5.076h57.613m-172.84 0H720m57.613 0-1.59-4.795m174.43 4.795 6.732 5.076m-181.162-9.87H720m183.242 15.252 5.685 5.716m-5.685-5.716h61.081m-7.138-5.38 7.138 5.38m0 0 7.58 5.716m-125.951 0 4.033 6.081m-4.033-6.08h62.975m-62.975 0h-62.976m125.951 0 6.05 6.08m-6.05-6.08h62.976m0 0 8.066 6.08m-129.984 0h64.992m-64.992 0h-64.993m136.434 6.484-6.449-6.484m6.449 6.484 6.891 6.927m-6.891-6.927h67.142m-73.591-6.484h64.992m-194.977 0H720m64.992 0-2.016-6.08m196.993 6.08 8.599 6.484M782.976 91.557H720m208.317 19.492 7.379 7.418m-7.379-7.418h69.439m-9.188-6.927 9.188 6.927m0 0 9.844 7.418m-143.803 0 5.281 7.963m-5.281-7.963h71.899m-71.899 0h-71.898m143.797 0 7.921 7.963m-7.921-7.963h71.904m0 0 10.56 7.963m-149.082 0h74.539m-74.539 0h-74.539m157.603 8.569-8.525-8.569m8.525 8.569 9.201 9.25m-9.201-9.25h77.378m-85.903-8.569h74.543m-223.621 0H720m74.539 0-2.64-7.963m226.261 7.963 11.36 8.569m-237.621-16.532H720m241.343 25.782 9.961 10.012m-9.961-10.012h80.447m-12.27-9.25 12.27 9.25m0 0 13.28 10.012m-167.534 0 7.211 10.875m-7.211-10.875h83.768m-83.768 0h-83.768m167.536 0 10.817 10.875m-10.817-10.875h83.766m0 0 14.42 10.875m-174.743 0h87.374m-87.374 0h-87.373m186.538 11.853-11.791-11.853m11.791 11.853 12.898 12.969m-12.898-12.969h91.308m-103.099-11.853h87.369m-262.116 0H720m87.374 0-3.606-10.875m265.722 10.875 15.73 11.853m-281.452-22.728H720m286.81 35.697 14.18 14.252m-14.18-14.252h95.61m-17.2-12.969 17.2 12.969m0 0 18.9 14.252m-200.66 0 10.435 15.734M920.66 204.21h100.33m-100.33 0H820.33m200.66 0 15.65 15.734m-15.65-15.734h100.33m0 0 20.87 15.734m-105.55 0H931.095m105.545 0h105.55m-211.095 0H825.548m0 0H720m105.548 0-5.218-15.734m0 0H720M647.806 10.496l-.161.242-.161.244-.163.245-.162.246-.329.494-.165.25-.166.25m1.307-1.971h36.097m-36.097 0h-36.097m72.825-1.902.609-1.837m-.609 1.837-.631 1.902m.631-1.902H720m-34.857-1.837.074-.225.075-.224.074-.224.366-1.102m-.589 1.775H720m-68.537-1.775.144-.218.571-.861.423-.637m-1.138 1.716h34.269m-34.269 0h-34.269m66.709 5.514-.081.242-.08.244-.082.245-.41 1.24m.653-1.971H720m0-1.902V6.757m0 1.837v1.902m0-3.74V4.983m-34.268 0H720m-34.268 0 .215-.65.072-.215.281-.85m33.7 7.229v1.971m34.269-7.485-.215-.65-.072-.215-.071-.214-.071-.213-.07-.212-.07-.212m.569 1.716H720m0 0V3.266m-73.501 9.201h36.751m-36.751 0h-36.75m72.823 2.044-.087.26-.086.262-.53 1.598m.703-2.12.678-2.044m-.678 2.044H720m-36.75-2.044H720m-110.251 0h-36.751m36.751 0 .496-.5.247-.247.245-.247.246-.246.242-.245.243-.243.241-.243M720 12.467v2.044m-108.291-4.015h-36.097m106.257 6.135-.73 2.202m.73-2.202H720m0-2.12v2.12m0 0v2.202m-77.723 0-1.517 2.288m1.517-2.288h38.862m-38.862 0h-38.861m77.723 0-.759 2.288m.759-2.288H720m0 0v2.288m-79.24 0h39.62m-39.62 0h-39.62m78.452 2.378.788-2.378m-.788 2.378-.821 2.476m.821-2.476H720m-39.62-2.378H720m-118.86 0h-39.62m39.62 0 2.276-2.288M720 21.12v2.378m-116.584-4.666h-38.861m114.216 7.142-.317.954-.321.969-.218.655m.856-2.578H720m0-2.476v2.476m0 0v2.578m-84.168 0-.883 1.329-.222.337-.678 1.02m1.783-2.686h42.083m-42.083 0h-42.085m84.168 0-.218.66-.446 1.344-.226.683m.89-2.687H720m0 0v2.687m-85.951 0h42.976m-42.976 0h-42.975m85.021 2.803.118-.357.812-2.446m-.93 2.803-.97 2.928m.97-2.928H720m-42.975-2.803H720m-128.926 0h-42.975m42.975 0 2.673-2.687M720 31.24v2.803m-126.253-5.49h-42.085m123.463 8.418-1.015 3.06m1.015-3.06H720m0-2.928v2.928m0 0v3.06m-91.781 0-2.122 3.2m2.122-3.2h45.891m-45.891 0h-45.89m91.781 0-1.062 3.2m1.062-3.2H720m0 0v3.2m-93.903 0h46.951m-46.951 0h-46.952m92.792 3.353 1.111-3.352m-1.111 3.352-1.166 3.516m1.166-3.516H720m-46.952-3.352H720m-140.855 0h-46.952m46.952 0 3.184-3.202M720 43.232v3.352M582.329 40.03h-45.89M670.771 50.1l-1.224 3.69m1.224-3.69H720m0-3.516V50.1m0 0v3.69m-100.906 0-2.572 3.879m2.572-3.878h50.453m-50.453 0h-50.452m100.905 0-1.286 3.878m1.286-3.878H720m0 0v3.878m-103.478 0h51.739m-51.739 0h-51.739m102.125 4.081 1.353-4.081m-1.353 4.081-1.426 4.3m1.426-4.3H720m-51.739-4.081H720m-155.217 0h-51.739m51.739 0 3.859-3.878M720 57.669v4.081m-151.358-7.96h-50.454m147.294 12.26-1.505 4.539m1.505-4.538H720m0-4.3v4.3m0 0v4.538m-112.046 0-3.18 4.795m3.18-4.795h56.023m-56.023 0h-56.023m112.046 0-1.59 4.795m1.59-4.795H720m0 0v4.795m-115.226 0h57.613m-57.613 0H547.16m113.544 5.076 1.683-5.076m-1.683 5.076-1.785 5.382m1.785-5.382H720m-57.613-5.076H720m-172.84 0h-57.613m57.613 0 4.771-4.795M720 75.384v5.076m-168.069-9.87h-56.024m163.012 15.252-1.895 5.716m1.895-5.716H720m0-5.38v5.38m0 0v5.716m-125.952 0-4.032 6.081m4.032-6.08h62.976m-62.976 0h-62.975m125.951 0-2.016 6.08m2.016-6.08H720m0 0v6.08m-129.984 0h64.992m-64.992 0h-64.993m127.835 6.484 2.15-6.484m-2.15 6.484-2.297 6.927m2.297-6.927H720m-64.992-6.484H720m-194.977 0h-64.992m64.992 0 6.05-6.08M720 97.637v6.484M531.073 91.557h-62.976m182.464 19.492-2.46 7.418m2.46-7.418H720m0-6.927v6.927m0 0v7.418m-143.797 0-5.281 7.963m5.281-7.963h71.898m-71.898 0h-71.899m143.797 0-2.64 7.963m2.64-7.963H720m0 0v7.963m-149.078 0h74.539m-74.539 0h-74.539m146.236 8.569 2.842-8.569m-2.842 8.569-3.066 9.25m3.066-9.25H720m-74.539-8.569H720m-223.617 0h-74.539m74.539 0 7.921-7.963M720 126.43v8.569m-215.696-16.532h-71.899m207.148 25.782-3.321 10.012m3.321-10.012H720m0-9.25v9.25m0 0v10.012m-167.535 0-7.212 10.875m7.212-10.875h83.767m-83.767 0h-83.769m167.536 0-3.606 10.875m3.606-10.875H720m0 0v10.875m-174.747 0h87.373m-87.373 0h-87.374m170.817 11.853 3.93-11.853m-3.93 11.853-4.3 12.969m4.3-12.969H720m-87.374-11.853H720m-262.121 0h-87.374m87.374 0 10.817-10.875M720 165.136v11.853m-251.304-22.728h-83.767m239.467 35.697-4.726 14.252m4.726-14.252H720m0-12.969v12.969m0 0v14.252m-200.66 0-10.435 15.734m10.435-15.734h100.33m-100.33 0H419.009m200.661 0-5.218 15.734m5.218-15.734H720m0 0v15.734m-105.548 0H508.905m105.547 0H720m-211.095 0H403.358m0 0H297.81m105.548 0 15.651-15.734m0 0h-100.33M503.418 10.496l-1.943.977-1.978.994m3.921-1.971h36.097m-36.097 0h-36.096m75.347-1.902 3.045-1.837m-3.045 1.837-3.154 1.902m3.154-1.902h35.466m-32.421-1.837h34.857m-34.857 0 2.216-1.337.727-.438m-34.269 0h34.269m-34.269 0 1.294-.65 2.12-1.066m-3.414 1.716h-34.269m59.396 5.514-3.267 1.971m3.267-1.971h36.097m2.523-1.902 2.436-1.837m-2.436 1.837-2.523 1.902m4.959-3.74 1.188-.894.877-.661.289-.219m-34.268 0h34.268m-34.268 0 2.142-1.292.702-.424m24.111 7.23-1.952 1.471-.662.5m44.196-7.485.216-.218.431-.432.638-.642.422-.424m-1.707 1.716h-34.269m0 0 .289-.218.574-.432 1.413-1.066m-85.704 9.201h36.751m-36.751 0h-36.751m70.113 2.044.431-.26.428-.258 1.694-1.022.836-.504m-3.389 2.044-2.624 1.582-.892.538m3.516-2.12h37.429m-34.04-2.044h36.75m-110.252 0h-36.75m36.75 0 3.447-1.485 1.129-.486m105.676 1.971-2.71 2.044m-102.966-4.015h-36.098m98.119 6.135-.448.27-.451.273-1.365.823-.461.277-.925.559m3.65-2.202h38.131m2.814-2.12-.347.26-2.467 1.86m0 0-.358.27-.361.273-.362.273-1.838 1.386m-77.723 0-4.551 2.288m4.551-2.288h38.861m-38.861 0h-38.861m77.722 0L521.9 21.12m3.793-2.288h38.862m0 0-3.035 2.288m-79.239 0H521.9m-39.619 0h-39.62m75.296 2.378 3.943-2.378m-3.943 2.378-4.104 2.476m4.104-2.476h40.408M521.9 21.121h39.62m-118.859 0h-39.62m39.62 0 5.31-2.288M561.52 21.12l-3.155 2.378m-110.394-4.666h-38.862m104.744 7.142-4.274 2.578m4.274-2.578h41.229m3.283-2.476-.808.61-2.475 1.866m0 0-1.266.954-1.286.969-.868.655m-84.168 0-2.645 1.329-2.701 1.358m5.346-2.687h42.085m-42.085 0h-42.085m84.17 0-4.456 2.687m4.456-2.687h42.083m0 0-3.563 2.687m-85.951 0h42.975m-42.975 0h-42.975m81.303 2.803 4.647-2.803m-4.647 2.803-4.854 2.928m4.854-2.928h43.904m-39.257-2.803h42.976m-128.926 0h-42.976m42.976 0 6.236-2.687m122.69 2.687-3.719 2.803m-118.971-5.49h-42.083m112.296 8.418-1.247.752-3.826 2.307m5.073-3.06h44.875m3.883-2.927-3.883 2.928m0 0-.497.375-1.509 1.137-2.052 1.547m-91.78 0-6.369 3.202m6.369-3.202h45.89m-45.89 0h-45.89m91.78 0-5.308 3.202m5.308-3.202h45.89m0 0-4.246 3.202m-93.903 0h46.951m-46.951 0h-46.952m88.344 3.352 3.506-2.113 2.053-1.24m-5.559 3.353-5.828 3.516m5.828-3.516h48.064m-42.505-3.352h46.952m-140.855 0h-46.952m46.952 0 7.431-3.202m133.424 3.202-4.447 3.352M398.769 40.03h-45.891M473.854 50.1l-6.119 3.69m6.119-3.69h49.229m4.663-3.516-4.663 3.516m0 0-4.895 3.69m-100.906 0-7.716 3.879m7.716-3.878h50.453m-50.453 0H366.83m100.905 0-6.43 3.878m6.43-3.878h50.453m0 0-5.144 3.878m-103.478 0h51.739m-51.739 0h-51.739m96.712 4.081 6.766-4.081m-6.766 4.081-7.13 4.3m7.13-4.3h53.092m-46.326-4.081h51.739m-155.217 0h-51.738m51.738 0 9.003-3.878m146.214 3.878-5.413 4.081M366.83 53.79h-50.453m131.032 12.26-7.524 4.539m7.524-4.538h54.518m5.704-4.3-5.704 4.3m0 0-6.02 4.538m-112.045 0-9.541 4.795m9.541-4.795h56.023m-56.023 0h-56.024m112.047 0-7.951 4.795m7.951-4.795h56.022m0 0-6.36 4.795m-115.226 0h57.613m-57.613 0h-57.614m106.811 5.076 8.416-5.076m-8.416 5.076-8.921 5.382m8.921-5.382h59.297m-50.881-5.076h57.613m-172.84 0h-57.613m57.613 0 11.131-4.795m161.709 4.795-6.732 5.076m-154.977-9.87h-56.022m142.781 15.252-9.476 5.716m9.476-5.716h61.08m7.138-5.38-7.138 5.38m0 0-7.58 5.716m-125.952 0-12.098 6.081m12.098-6.08h62.976m-62.976 0h-62.976m125.952 0-10.082 6.08m10.082-6.08h62.976m0 0-8.066 6.08m-129.984 0h64.992m-64.992 0h-64.993m119.236 6.484 10.749-6.484m-10.749 6.484-11.486 6.927m11.486-6.927h67.142m-56.393-6.484h64.992m-194.977 0h-64.992m64.992 0 14.115-6.08m180.862 6.08-8.599 6.484M279.169 91.557h-62.976m156.611 19.492-12.298 7.418m12.298-7.418h69.44m9.188-6.927-9.188 6.927m0 0-9.839 7.418m-143.798 0-15.842 7.963m15.842-7.963h71.899m-71.899 0h-71.899m143.798 0-13.202 7.963m13.202-7.963h71.899m0 0-10.561 7.963m-149.079 0h74.539m-74.539 0h-74.539m134.87 8.569 14.208-8.569m-14.208 8.569-15.335 9.25m15.335-9.25h77.381m-63.173-8.569h74.54m-223.618 0h-74.539m74.539 0 18.482-7.963m205.136 7.963-11.367 8.569m-193.769-16.532h-71.899m172.952 25.782-16.6 10.012m16.6-10.012h80.448m12.268-9.25-12.268 9.25m0 0-13.28 10.012m-167.536 0-21.635 10.875m21.635-10.875h83.768m-83.768 0h-83.768m167.536 0-18.029 10.875m18.029-10.875h83.768m0 0-14.424 10.875m-174.747 0h87.374m-87.374 0h-87.374m155.096 11.853 19.652-11.853m-19.652 11.853-21.503 12.969m21.503-12.969h91.304m-71.652-11.853h87.373m-262.121 0H21.01m87.374 0 25.241-10.875m236.88 10.875-15.721 11.853m-221.159-22.728H49.858m192.119 35.697-23.628 14.252m23.628-14.252h95.605m17.202-12.969-17.202 12.969m0 0-18.903 14.252m-200.66 0-31.303 15.734m31.303-15.734h100.33m-100.33 0H17.689m200.66 0-26.086 15.734m26.086-15.734h100.33m0 0-20.869 15.734m-105.547 0H86.716m105.547 0H297.81m-211.094 0H.388m17.3-15.734-17.3 7.454m17.3-7.454H.388M359.03 10.496l-6.535 1.971m6.535-1.971h36.097m-36.097 0h-36.096m77.87-1.902 5.482-1.837m-5.482 1.837-5.677 1.902m5.677-1.902h35.466m-29.984-1.837h34.857m-34.857 0 5.296-1.775m-34.269 0h34.269m-34.269 0 2.157-.65 3.533-1.066m-5.69 1.716h-34.268m52.082 5.514-5.882 1.971m5.882-1.971h36.097m5.046-1.902 4.873-1.837m-4.873 1.837-5.046 1.902m9.919-3.74 3.546-1.336 1.162-.438m-34.269 0 .65-.218 4.471-1.498m-5.121 1.716h34.269m-14.627 5.514-5.228 1.971m54.123-7.485 3.983-1.716m-3.983 1.716h-34.268m0 0 1.725-.65 2.827-1.066m-97.908 9.201h36.75m-36.75 0h-36.751m67.402 2.044 6.099-2.044m-6.099 2.044-6.328 2.12m6.328-2.12h37.429m-31.33-2.044h36.751m-110.252 0h-36.75m36.75 0 7.19-1.971m103.062 1.971-5.421 2.044m-97.641-4.015h-36.097m89.981 6.135-1.62.543-4.951 1.659m6.571-2.202h38.132m5.625-2.12-5.625 2.12m0 0-5.841 2.202m-77.723 0-.932.281-6.653 2.006m7.585-2.287h38.861m-38.861 0h-38.861m77.722 0-6.826 2.288m6.826-2.288h38.862m0 0-.745.281-5.323 2.006m-79.24 0h39.62m-39.62 0h-39.62m72.141 2.38 7.099-2.38m-7.099 2.38-7.387 2.475m7.387-2.476h40.409m-33.31-2.378h39.62m-118.86 0h-39.62m39.62 0 8.344-2.288m110.516 2.288-6.31 2.378m-104.206-4.666h-38.862m95.272 7.142-7.694 2.578m7.694-2.578h41.229m6.567-2.476-6.567 2.476m0 0-6.838 2.578m-84.169 0-8.91 2.687m8.91-2.687h42.084m-42.084 0h-42.084m84.168 0-8.019 2.687m8.019-2.687h42.085m0 0-7.129 2.687m-85.95 0h42.975m-42.975 0h-42.976m77.585 2.803 8.366-2.803m-8.366 2.803-8.737 2.928m8.737-2.928h43.904m-35.538-2.803h42.975m-128.926 0h-42.975m42.975 0 9.802-2.687m119.124 2.687-7.437 2.803m-111.687-5.49h-42.085m101.131 8.418-9.131 3.06m9.131-3.06h44.876m7.765-2.928-7.765 2.928m0 0-8.117 3.06m-91.78 0-10.615 3.2m10.615-3.2h45.89m-45.89 0h-45.89m91.78 0-9.553 3.2m9.553-3.2h45.89m0 0-8.492 3.2m-93.903 0h46.952m-46.952 0h-46.952m83.897 3.353 10.007-3.352m-10.007 3.352L276.937 50.1m10.491-3.516h48.064m-38.057-3.352h46.951m-140.855 0h-46.952m46.952 0 11.677-3.202m129.178 3.202-8.894 3.352M215.208 40.03h-45.891m107.62 10.07-11.013 3.69m11.013-3.69h49.229m9.326-3.516-9.326 3.516m0 0-9.789 3.69m-100.906 0-12.86 3.879m12.86-3.878h50.453m-50.453 0h-50.453m100.906 0-11.575 3.878m11.575-3.878h50.453m0 0-10.288 3.878m-103.478 0h51.738m-51.738 0h-51.74m91.298 4.081 12.18-4.081m-12.18 4.081-12.834 4.3m12.834-4.3h53.093m-40.913-4.081h51.74m-155.218 0H99.133m51.738 0 14.147-3.878m141.071 3.878-10.827 4.081m-130.244-7.96h-50.453m114.77 12.26-13.543 4.539m13.543-4.538h54.518m11.409-4.3-11.409 4.3m0 0-12.037 4.538m-112.047 0-15.901 4.795m15.901-4.795h56.023m-56.023 0h-56.023m112.046 0-14.311 4.795m14.311-4.795h56.024m0 0-12.722 4.795m-115.226 0h57.613m-57.613 0H86.255m100.078 5.076 15.148-5.076m-15.148 5.076-16.059 5.382m16.059-5.382h59.296m-44.148-5.076h57.613m-172.84 0H28.642m57.614 0 17.491-4.795m155.348 4.795L245.63 80.46m-141.884-9.87H47.723m122.551 15.252-17.057 5.716m17.057-5.716h61.081m14.274-5.38-14.274 5.38m0 0-15.162 5.716m-125.951 0-20.165 6.081m20.165-6.08h62.975m-62.975 0H27.266m125.951 0-18.147 6.08m18.147-6.08h62.976m0 0-16.131 6.08m-129.985 0h64.993m-64.992 0H5.085m110.635 6.484 19.35-6.484m-19.35 6.484-20.672 6.927m20.672-6.927h67.143m-47.793-6.484h64.992m-194.977 0 22.18-6.08m-22.18 6.08H.388m4.697 0L.388 98.926m199.674-1.288-17.199 6.484M27.266 91.557H.388m94.66 19.492-22.137 7.418m22.137-7.418h69.439m18.376-6.927-18.376 6.927m0 0-19.678 7.418m-143.797 0h71.899m-71.899 0H.388m.624 0-.624.188m72.523-.188-23.764 7.963m23.764-7.963h71.898m0 0-21.122 7.963m-100.114 8.569 25.574-8.569m-25.574 8.569h77.38m-77.38 0H.388m23.185 0L.388 142.768m48.76-16.338h74.539m-74.54 0H.387m123.3 0-22.734 8.569m0 0-24.535 9.25m0 0-26.56 10.012m26.56-10.012H.388m49.47 10.012L21.01 165.136m28.848-10.875H.388m20.622 10.875H.388m20.622 0L.388 172.91M214.642 10.496l-9.149 1.971m9.149-1.971h36.098m-36.098 0h-36.096m80.393-1.902 7.918-1.837m-7.918 1.837-8.199 1.902m8.199-1.902h35.466m-27.548-1.837h34.857m-34.857 0 7.65-1.775m-34.268 0h34.268m-34.268 0 7.965-1.716m-7.965 1.716H205.97m44.77 5.514-8.497 1.971m8.497-1.971h36.097m7.568-1.902 7.309-1.837m-7.309 1.837-7.568 1.902m14.877-3.74 7.062-1.774m-34.269 0 .938-.218 6.459-1.498m-7.397 1.716h34.269m-21.939 5.514-7.843 1.971m64.051-7.485 6.258-1.716m-6.258 1.716h-34.269m0 0 .866-.218 5.961-1.498m-110.11 9.201h36.75m-36.75 0h-36.751m64.691 2.044 8.81-2.044m-8.81 2.044-9.14 2.12m9.14-2.12h37.429m-28.619-2.044h36.751m-110.252 0h-36.75m36.75 0 9.804-1.971m100.448 1.971-8.132 2.044m-92.316-4.015h-36.097m81.844 6.135-9.491 2.202m9.491-2.202h38.131m8.438-2.12-1.038.26-7.4 1.86m0 0-8.761 2.202m-77.722 0-10.62 2.288m10.62-2.288h38.861m-38.861 0h-38.862m77.723 0-9.861 2.288m9.861-2.288h38.861m0 0-9.102 2.288m-79.24 0h39.62m-39.62 0h-39.62m68.986 2.378 10.254-2.378m-10.254 2.378-10.67 2.476m10.67-2.476h40.409m-30.155-2.378h39.62m-118.86 0h-39.62m39.62 0 11.378-2.288m107.482 2.288-9.465 2.378m-98.017-4.666h-38.86m85.798 7.142-11.113 2.578m11.113-2.578h41.229m9.85-2.476-9.85 2.476m0 0-10.258 2.578m-84.168 0-12.475 2.687m12.475-2.687h42.084m-42.084 0H88.735m84.169 0-11.583 2.687m11.583-2.687h42.084m0 0-10.692 2.687m-85.951 0h42.976m-42.976 0H75.37m73.866 2.803 12.085-2.803m-12.085 2.803-12.619 2.928m12.619-2.928h43.905m-31.82-2.803h42.975m-128.926 0H32.395m42.975 0 13.365-2.687m115.561 2.687-11.155 2.803m-104.406-5.49H46.651m89.966 8.418-13.19 3.06m13.19-3.06h44.875m11.649-2.928-11.649 2.928m0 0-12.175 3.06m-91.78 0-14.861 3.2m14.86-3.2h45.891m-45.89 0h-45.89m91.78 0-13.799 3.2m13.799-3.2h45.89m0 0-12.738 3.2m-93.903 0h46.952m-14.454 3.353 14.454-3.352m-14.454 3.352L80.02 50.1m15.154-3.516h48.064m-33.61-3.352h46.951m0 0-13.341 3.352M31.648 40.03H.387M80.02 50.1l-15.908 3.69M80.02 50.1h49.229m13.989-3.516L129.249 50.1m0 0-14.684 3.69m-100.906 0h50.453m-50.453 0H.388m13.271 0L.388 56.65m63.724-2.86-16.719 3.88m16.72-3.878h50.452m0 0L99.133 57.67M29.8 61.75l17.593-4.081M29.8 61.75l-18.538 4.3m18.538-4.3h53.093m-53.093 0H.388m47.005-4.081h51.74m-51.74 0H.388m98.745 0-16.24 4.081M.24 56.68l.147-.03m10.874 9.4H65.78m-54.518 0H.388m10.874 0L.388 68.574m82.505-6.823-17.113 4.3m0 0L47.723 70.59m0 0-19.082 4.795m19.082-4.795H.388m8.056 9.871 20.197-5.076M8.444 80.46H.388m8.056 0L.388 82.486m28.253-7.1H.388m69.867-64.889-11.764 1.971m11.764-1.971h36.097m-36.097 0H34.158m82.916-1.902 10.354-1.837m-10.354 1.837-10.722 1.902m10.722-1.902h35.467m-25.113-1.837h34.857m-34.857 0 10.005-1.775m-34.269 0h34.269m-34.269 0 10.241-1.716m-10.241 1.716H68.895m37.457 5.514-11.11 1.971m11.11-1.971h36.097m10.092-1.902 9.744-1.837m-9.744 1.837-10.092 1.902m19.836-3.74 9.416-1.774m-34.268 0h34.268m-34.268 0 9.672-1.716m-4.656 7.23-10.457 1.971m73.978-7.485 8.534-1.716m-8.534 1.716h-34.269m0 0 9.104-1.716m-122.314 9.2h36.75m-36.75 0h-36.75m61.98 2.044 11.52-2.044m-11.52 2.044-11.953 2.12m11.953-2.12h37.428m-25.907-2.044h36.75m-110.251 0 12.417-1.971M21.74 12.467H.389m131.604 0-10.843 2.044m-86.991-4.015H.388m71.38 6.135-12.411 2.202m12.41-2.202H109.9m11.25-2.12-11.25 2.12m0 0-11.68 2.202m-77.723 0L6.842 21.12m13.654-2.288h38.86m-38.86 0H.387m58.969 0L46.462 21.12m12.895-2.288h38.861m0 0L86.081 21.12m-53.028 2.378 13.409-2.378m-13.41 2.378L19.1 25.975m13.954-2.476H73.46m-40.408 0H.388m46.074-2.378H6.842m39.62 0h39.62m-79.24 0L.388 22.2m6.454-1.08H.388m85.693 0-12.62 2.378M19.1 25.975 4.567 28.553m14.532-2.578h41.23m-41.23 0H.388m73.073-2.476-13.133 2.476m0 0-13.677 2.578m-42.084 0H46.65m-42.084 0-4.18.74m4.18-.74H.387m46.264 0L32.395 31.24M17.52 34.043l14.874-2.803M17.52 34.043 1.99 36.971m15.53-2.928H.388m32.007-2.803H.388m-.225 0h.225m1.602 5.73H.388m1.602 0-1.602.303M0 37.346l.388-.073m10.288-28.68 12.18-1.836m-12.18 1.837H.388m10.288 0L.388 10.145m22.469-3.388 11.77-1.775m-11.77 1.775H.387m68.508-1.775 10.81-1.716m-10.81 1.716H34.627m0 0 11.379-1.716m-11.38 1.716H.389M1191.8 3.266h33.7m-33.7 0h-33.7m59.14-1.66 2.04.41 6.22 1.25m-8.26-1.66h33.15m-24.89 1.66h33.7m-8.81-1.66 2.17.41 1.1.206 5.54 1.044m0 0h33.69m0 0h33.71m-168.5 0h-33.7m202.2 0h33.69m0 0-10.45-1.66m10.45 1.66h33.7m-44.15-1.66h33.15M1057 3.267h33.7m-33.7 0h-33.7m61.34-1.66 1.5.41.75.206 3.81 1.044m-6.06-1.66h33.15m-27.09 1.66h33.7m-6.61-1.66 6.61 1.66m-101.1 0h-33.702m-67.4 0h33.7m-33.7 0h-33.699m63.546-1.66.475.205.476.206.479.205 2.423 1.044m-3.853-1.66h33.149m-29.296 1.66h33.7m-4.404-1.66 4.404 1.66m-101.099 0h-33.701m-67.399 0h33.7m-33.7 0H753.7m65.748-1.66 1.651 1.66m-1.651-1.66h33.15m-31.499 1.66h33.699m-2.2-1.66.271.205.272.206.274.205 1.383 1.044m-101.098 0H720m-67.399 0H686.3m-33.699 0h-33.7m67.95-1.66-.551 1.66m.551-1.66H720m-33.7 1.66H720m0-1.66v1.66m-101.099 0h-33.7m-67.399 0h33.699m-33.699 0h-33.7m70.151-1.66-.679.41-1.376.83-.697.42m2.752-1.66h33.149m-35.901 1.66h33.7m2.201-1.66-.271.205-.272.206-.274.205-1.384 1.044m-101.099 0h-33.699m-67.4 0h33.7m-33.7 0h-33.7m72.353-1.66-1.223.41-.616.206-3.114 1.044m4.953-1.66h33.15m-38.103 1.66h33.7m4.403-1.66-.543.205-3.86 1.455m-101.1 0h-33.7m-67.399 0h33.7m-33.7 0h-33.7m74.555-1.66-1.767.41-.889.206-4.499 1.044m7.155-1.66h33.149m-40.304 1.66h33.699m6.605-1.66-.814.205-5.791 1.455m-101.099 0h-33.699m-67.4 0h33.7m-33.7 0h-33.7m76.756-1.66-9.356 1.66m9.356-1.66h33.149m-42.505 1.66h33.7m8.805-1.66-2.173.41-1.095.206-5.537 1.044m-101.1 0h-33.7m-22.14-1.66-11.559 1.66m11.558-1.66h33.15m-33.15 0H.388m11.918 1.66h33.7m-33.7 0L.388 4.978m11.918-1.712H.388m56.626-1.66-2.719.41-8.29 1.25m1336.985-1.66 2.71.41 8.29 1.25m0 0h33.7m0 0 11.92 1.712m-11.92-1.712h11.92m0 79.22V80.46m0 2.025v3.356m0-5.38v-5.077m0 10.457v5.716m0 0v6.081m0-54.406V40.03m0 3.202v3.083m0-44.708v1.66m0 0v1.711m0 0 .03.004h-.03m0-.004v.004m0 0v1.775m0 0v1.837m0 0v1.551m0 0v.351m0 0v1.971m0 0v2.044m0 0v1.345m0 0v.775m0 0v2.202m0 0v2.288m0 0v1.08m0 0V23.5m0 0v2.476m0 0v2.578m0 0v.74m0 0v1.947m0 0v2.803m0 0v2.928m0 0v.302m0 0v2.757m0 6.554V50.1m0-3.516v-.269m0 3.785v3.69m0 0v2.86m0 0v1.019m0 0v4.081m0 0v4.3m0 0v2.523m0 0v2.016m0 0v4.795m0 22.254v1.288m0 0v5.196m0 0v6.927m0 0v7.418m0 0v.188m0 0v7.775m0 0v8.569m0 0v7.769m0 0v1.481m0 0v10.012m0 0v10.875m0 0v7.774m0 0v4.079m0 0v12.969m0 0v14.252m0 0v7.454m0 0v8.28m0 0V220H.388v-.056m0-173.36V50.1m0-3.516v-.269m0 0v-3.083m0 0V40.03m0 0v-2.757m0 0v-.303m0 0v-2.927m0 0V31.24m0 0v-1.946m0 0v-.741m0 0v-2.578m0 0v-2.476m0 0v-1.297m0 0V21.12m0 0v-2.287m0 0V16.63m0 0v-.775m0 0V14.51m0 0v-2.044m0 0v-1.971m0 0v-.351m0 0v-1.55m0 0V6.757m0 0V4.982m0 0h-.03l.03-.004m0 .004v-.004m0 0V3.266m0 0v-1.66m0 218.338v-8.28m0 0v-7.454m0 0v-14.252m0 0v-12.969m0 0v-4.079m0 0v-7.774m0 0v-10.875m0 0v-10.012m0 0v-1.481m0 0v-7.769m0 0v-8.569m0 0v-7.775m0 0v-.188m0 0v-7.418m0 0v-6.927m0 0v-5.196m0 0v-1.288m0 0v-6.08m0 0V85.84m0 0v-3.356m0 0V80.46m0 0v-5.076m0 0V70.59m0 0v-2.016m0 0v-2.522m0 0v-4.3m0 0V57.67m0 0v-1.02m0 0v-2.858m0 0V50.1"/><path fill="url(#c)" d="M0 43h1440v177H0z"/></g><defs><radialGradient id="b" cx="0" cy="0" r="1" gradientTransform="matrix(0 -344.381 2254.13 0 720 211.891)" gradientUnits="userSpaceOnUse"><stop stop-color="#3D3D3D"/><stop offset=".489" stop-color="#3D3D3D" stop-opacity="0"/></radialGradient><linearGradient id="c" x1="718.88" x2="718.88" y1="220" y2="43" gradientUnits="userSpaceOnUse"><stop stop-color="#050505"/><stop offset=".7" stop-color="#050505" stop-opacity="0"/></linearGradient><clipPath id="a"><path fill="#fff" d="M0 0h1440v220H0z"/></clipPath></defs></svg>